<svg id="_003-whatsapp" data-name="003-whatsapp" xmlns="http://www.w3.org/2000/svg" width="100" height="100" viewBox="0 0 100 100">
  <path id="Trazado_2" data-name="Trazado 2" d="M50,0a50,50,0,1,0,50,50A50.005,50.005,0,0,0,50,0Zm1.06,79.112h-.012a29.914,29.914,0,0,1-14.3-3.642L20.882,79.63l4.246-15.5A29.927,29.927,0,1,1,51.06,79.112Zm0,0" fill="#ddd"/>
  <path id="Trazado_3" data-name="Trazado 3" d="M156.141,124.469c-12.168,0-22.065,9.3-22.07,20.725a19.769,19.769,0,0,0,3.373,11.03l.524.784-2.229,7.648,8.349-2.058.806.449a23.108,23.108,0,0,0,11.228,2.889h.009c12.159,0,22.055-9.3,22.061-20.726a19.99,19.99,0,0,0-6.455-14.663,22.645,22.645,0,0,0-15.6-6.078ZM169.117,154.1c-.553,1.455-3.2,2.784-4.476,2.963a9.664,9.664,0,0,1-4.177-.247,39.9,39.9,0,0,1-3.781-1.313c-6.652-2.7-11-8.992-11.329-9.408s-2.708-3.379-2.708-6.446a6.819,6.819,0,0,1,2.321-5.2,2.511,2.511,0,0,1,1.769-.78c.442,0,.884,0,1.271.022.407.019.954-.146,1.492,1.07.553,1.248,1.879,4.314,2.045,4.626a1.089,1.089,0,0,1,.055,1.092,17.844,17.844,0,0,1-1.658,2.131c-.294.343-.678.648-.291,1.272a19.008,19.008,0,0,0,3.689,4.316,18.408,18.408,0,0,0,5.333,3.093c.662.312,1.049.259,1.437-.156s1.658-1.819,2.1-2.443.884-.52,1.492-.312,3.868,1.715,4.532,2.027,1.1.468,1.271.728a4.907,4.907,0,0,1-.386,2.963Zm0,0" transform="translate(-104.954 -96.152)" fill="#ddd"/>
</svg>
