<svg xmlns="http://www.w3.org/2000/svg" width="100" height="100" viewBox="0 0 100 100">
  <path id="_010-linkedin" data-name="010-linkedin" d="M50,0a50,50,0,1,0,50,50A50.005,50.005,0,0,0,50,0ZM35.471,75.586H23.293V38.95H35.471ZM29.382,33.948H29.3c-4.086,0-6.729-2.813-6.729-6.329,0-3.595,2.724-6.33,6.889-6.33s6.729,2.735,6.808,6.33c0,3.516-2.643,6.329-6.889,6.329Zm50,41.638H67.2v-19.6c0-4.926-1.763-8.285-6.169-8.285a6.666,6.666,0,0,0-6.248,4.453,8.339,8.339,0,0,0-.4,2.972V75.586H42.21s.159-33.2,0-36.636H54.386v5.187A12.089,12.089,0,0,1,65.36,38.09c8.012,0,14.019,5.236,14.019,16.489Zm0,0" fill="#ddd"/>
</svg>
