<svg xmlns="http://www.w3.org/2000/svg" width="100" height="100" viewBox="0 0 100 100">
  <path id="_013-twitter-1" data-name="013-twitter-1" d="M50,0a50,50,0,1,0,50,50A50.005,50.005,0,0,0,50,0ZM72.83,38.985q.033.738.033,1.483c0,15.165-11.543,32.652-32.653,32.653h0a32.485,32.485,0,0,1-17.591-5.155,23.343,23.343,0,0,0,2.737.159A23.028,23.028,0,0,0,39.61,63.212a11.489,11.489,0,0,1-10.722-7.971,11.438,11.438,0,0,0,5.183-.2,11.479,11.479,0,0,1-9.207-11.25c0-.052,0-.1,0-.146a11.4,11.4,0,0,0,5.2,1.435,11.486,11.486,0,0,1-3.553-15.321A32.583,32.583,0,0,0,50.166,41.753,11.483,11.483,0,0,1,69.723,31.287,23.019,23.019,0,0,0,77.01,28.5a11.521,11.521,0,0,1-5.047,6.348,22.889,22.889,0,0,0,6.59-1.807,23.322,23.322,0,0,1-5.724,5.943Zm0,0" fill="#ddd"/>
</svg>
