<svg id="Symbols" xmlns="http://www.w3.org/2000/svg" width="100" height="100" viewBox="0 0 100 100">
  <g id="Cards_Card_10" data-name="Cards/Card_10" transform="translate(0 0)">
    <g id="Group-2" transform="translate(0 0)">
      <path id="Sustracción_1" data-name="Sustracción 1" d="M50,100A50.013,50.013,0,0,1,30.538,3.929,50.013,50.013,0,0,1,69.462,96.071,49.687,49.687,0,0,1,50,100ZM35.277,43.413a1.207,1.207,0,0,0-1.2,1.208v9.734a1.206,1.206,0,0,0,1.2,1.206h7.687V80.121a1.206,1.206,0,0,0,1.2,1.207H54.2a1.207,1.207,0,0,0,1.2-1.207V55.561h8.988a1.206,1.206,0,0,0,1.2-1.206l0-9.734a1.206,1.206,0,0,0-1.2-1.208H55.4V37.719c0-2.737.65-4.126,4.2-4.126l5.15,0a1.206,1.206,0,0,0,1.2-1.208V23.345a1.206,1.206,0,0,0-1.2-1.206l-7.646-.013c-8.591,0-14.142,5.719-14.142,14.569v6.718Z" fill="#ddd"/>
    </g>
  </g>
</svg>
