<svg xmlns="http://www.w3.org/2000/svg" xmlns:xlink="http://www.w3.org/1999/xlink" width="462" height="210" viewBox="0 0 462 210">
  <defs>
    <filter id="Rectángulo_51" x="0" y="0" width="462" height="210" filterUnits="userSpaceOnUse">
      <feOffset dy="15" input="SourceAlpha"/>
      <feGaussianBlur stdDeviation="15" result="blur"/>
      <feFlood flood-opacity="0.161"/>
      <feComposite operator="in" in2="blur"/>
      <feComposite in="SourceGraphic"/>
    </filter>
    <linearGradient id="linear-gradient" x1="0.5" x2="0.5" y2="1" gradientUnits="objectBoundingBox">
      <stop offset="0" stop-color="#fafbd3"/>
      <stop offset="0.459" stop-color="#f7f9cc" stop-opacity="0.918"/>
      <stop offset="1" stop-color="#dadf84" stop-opacity="0"/>
    </linearGradient>
    <clipPath id="clip">
      <use xlink:href="#fill"/>
    </clipPath>
  </defs>
  <g id="Grupo_10" data-name="Grupo 10" transform="translate(-575 -795)">
    <g id="Grupo_2" data-name="Grupo 2">
      <g transform="matrix(1, 0, 0, 1, 575, 795)" filter="url(#Rectángulo_51)">
        <rect id="Rectángulo_51-2" data-name="Rectángulo 51" width="372" height="120" rx="34" transform="translate(45 30)" fill="#84a9ac"/>
      </g>
      <rect id="Rectángulo_52" data-name="Rectángulo 52" width="129" height="120" transform="translate(736 825)" fill="#84a9ac"/>
      <path id="Sustracción_2" data-name="Sustracción 2" d="M-1673,1463h-304a33.937,33.937,0,0,1-22.675-8.666A33.939,33.939,0,0,1-2010.767,1433h371.534a33.939,33.939,0,0,1-11.092,21.335A33.939,33.939,0,0,1-1673,1463Z" transform="translate(2631 -518)" fill="#ddd"/>
      <g id="Trazado_81" data-name="Trazado 81" transform="translate(768.422 898.59)" fill="#db8383">
        <path d="M 38.17880630493164 12.60738372802734 C 37.8804931640625 12.60738372802734 37.67841339111328 12.59734344482422 37.56142425537109 12.58892345428467 L 37.55048370361328 12.58813381195068 L 37.53951644897461 12.58783340454102 C 36.54639434814453 12.56002426147461 31.10940551757813 12.27120399475098 21.57687568664551 9.30743408203125 C 14.51940727233887 7.113190174102783 5.331212043762207 2.352517366409302 1.757567644119263 0.435278058052063 C 5.581396102905273 2.302897214889526 14.21551036834717 6.392374038696289 21.26680564880371 8.80095386505127 C 30.6081657409668 11.99177360534668 37.43588638305664 12.3213939666748 37.50376510620117 12.32435417175293 L 37.52727508544922 12.32537364959717 L 37.55077362060547 12.32418346405029 C 37.79081344604492 12.31205368041992 43.51282501220703 11.99011421203613 50.74082565307617 8.784863471984863 C 56.19884490966797 6.364514827728271 62.8359489440918 2.133572101593018 65.75226593017578 0.2112774550914764 C 63.44614791870117 2.004009008407593 57.09201049804688 6.758000373840332 51.39276504516602 9.329123497009277 C 44.65008544921875 12.37097358703613 39.573974609375 12.60738372802734 38.17880630493164 12.60738372802734 Z" stroke="none"/>
        <path d="M 66.96446228027344 -1.201536178588867 L 66.96446228027344 -0.1094465255737305 C 66.96446228027344 -0.1094465255737305 58.82468414306641 6.524853706359863 51.59837341308594 9.784893989562988 C 45.23169708251953 12.65711879730225 40.20695495605469 13.10738372802734 38.17881011962891 13.10738372802734 C 37.90496826171875 13.10738372802734 37.6860466003418 13.09918785095215 37.5255241394043 13.08763408660889 C 35.96746444702148 13.04401397705078 30.48907470703125 12.60194396972656 21.42842483520508 9.784893989562988 C 12.36777496337891 6.967833995819092 -7.62939453125e-06 0.04749393463134766 -7.62939453125e-06 0.04749393463134766 L -7.62939453125e-06 -0.9931459426879883 C -7.62939453125e-06 -0.9931459426879883 12.04704666137695 5.123303890228271 21.42842483520508 8.327794075012207 C 30.80980682373047 11.53228378295898 37.5255241394043 11.82482433319092 37.5255241394043 11.82482433319092 C 37.5255241394043 11.82482433319092 43.31182479858398 11.53228378295898 50.53813552856445 8.327794075012207 C 57.76442718505859 5.123303890228271 66.96446228027344 -1.201536178588867 66.96446228027344 -1.201536178588867 Z" stroke="none" fill="#707070"/>
      </g>
      <g id="Trazado_82" data-name="Trazado 82" transform="translate(834.666 896.297) rotate(7)" fill="#d6e442">
        <path d="M 1.25501823425293 28.50155639648438 L 0.5114968419075012 0.6398118138313293 L 1.166508078575134 0.5593892931938171 L 2.040207624435425 28.4051456451416 L 1.25501823425293 28.50155639648438 Z" stroke="none"/>
        <path d="M 1.64908504486084 -0.003622055053710938 L 2.554275035858154 28.84577751159668 L 0.7698750495910645 29.06486701965332 L -0.0004448890686035156 0.1989173889160156 L 1.64908504486084 -0.003622055053710938 Z" stroke="none" fill="#d2c951"/>
      </g>
      <g id="Trazado_83" data-name="Trazado 83" transform="translate(772.246 926.038) rotate(173)" fill="#d6e442">
        <path d="M 1.617418169975281 28.6341667175293 L 0.5663636326789856 28.5051155090332 L 0.6737433671951294 0.5652657747268677 L 1.886374354362488 0.7141597270965576 L 1.617418169975281 28.6341667175293 Z" stroke="none"/>
        <path d="M 1.122839689254761 28.06967926025391 L 1.382101655006409 1.156003475189209 L 1.17156970500946 1.130153179168701 L 1.068060398101807 28.06295394897461 L 1.122839689254761 28.06967926025391 M 2.112006902694702 29.19864654541016 L 0.06465695798397064 28.947265625 L 0.1759069561958313 0.0003859149292111397 L 2.3906569480896 0.2723259031772614 L 2.112006902694702 29.19864654541016 Z" stroke="none" fill="#d2c951"/>
      </g>
      <g id="Unión_12" data-name="Unión 12" transform="translate(832.675 890.042)" fill="#d6e442">
        <path d="M 4.584811210632324 6.783296585083008 L 0.9399118423461914 6.516915798187256 L 2.2703857421875 4.711427211761475 L 2.58124566078186 4.289566993713379 L 2.145285606384277 3.99882698059082 C 1.62246561050415 3.65015697479248 1.310335636138916 3.049407005310059 1.310335636138916 2.39182710647583 C 1.310335636138916 1.348667025566101 2.103825569152832 0.4999970197677612 3.079165697097778 0.4999970197677612 C 4.11452579498291 0.4999970197677612 4.656245708465576 1.451707005500793 4.656245708465576 2.39182710647583 C 4.656245708465576 3.156416893005371 4.322895526885986 3.814417123794556 3.786275625228882 4.109056949615479 L 3.364715576171875 4.340517044067383 L 3.579605579376221 4.77075719833374 L 4.584811210632324 6.783296585083008 Z" stroke="none"/>
        <path d="M 3.744846343994141 6.220575332641602 L 3.132295608520508 4.994176864624023 L 2.950835227966309 4.630867481231689 L 2.672895669937134 5.008037090301514 L 1.879812002182007 6.084272861480713 L 3.744846343994141 6.220575332641602 M 3.00206470489502 3.969225883483887 L 3.545625686645508 3.670777082443237 C 3.922275543212891 3.463977098464966 4.156245708465576 2.973906993865967 4.156245708465576 2.39182710647583 C 4.156245708465576 1.721477031707764 3.819195747375488 0.9999970197677612 3.079165697097778 0.9999970197677612 C 2.379525661468506 0.9999970197677612 1.810335636138916 1.624366998672485 1.810335636138916 2.39182710647583 C 1.810335636138916 2.881886959075928 2.039255619049072 3.327126979827881 2.42270565032959 3.582847118377686 L 3.00206470489502 3.969225883483887 M 5.42477560043335 7.346016883850098 L -4.345550678408472e-06 6.949556827545166 L 1.867865681648254 4.414806842803955 C 1.232225656509399 3.990896940231323 0.810335636138916 3.243376970291138 0.810335636138916 2.39182710647583 C 0.810335636138916 1.070837020874023 1.826015710830688 -2.988586402352666e-06 3.079165697097778 -2.988586402352666e-06 C 4.332315444946289 -2.988586402352666e-06 5.156245708465576 1.070837020874023 5.156245708465576 2.39182710647583 C 5.156245708465576 3.340857028961182 4.730935573577881 4.160787105560303 4.026915550231934 4.547337055206299 L 5.42477560043335 7.346016883850098 Z" stroke="none" fill="#d2c951"/>
      </g>
      <g id="Unión_13" data-name="Unión 13" transform="translate(771.095 898.209) rotate(180)" fill="#d6e442">
        <path d="M 3.821778774261475 6.846000671386719 C 2.544758796691895 6.846000671386719 1.505828738212585 5.997340679168701 1.505828738212585 4.954200744628906 C 1.505828738212585 4.316290855407715 1.898048758506775 3.72468090057373 2.555018663406372 3.371650695800781 L 3.120738744735718 3.067660808563232 L 2.687298774719238 2.59376072883606 L 1.077661275863647 0.8338761925697327 L 5.800256729125977 0.5557991862297058 L 4.573158740997314 2.535230875015259 L 4.270458698272705 3.023520708084106 L 4.795858860015869 3.255940914154053 C 5.487118721008301 3.561730861663818 5.899818897247314 4.196590900421143 5.899818897247314 4.954200744628906 C 5.899818897247314 6.068060874938965 5.04529857635498 6.846000671386719 3.821778774261475 6.846000671386719 Z" stroke="none"/>
        <path d="M 4.867437839508057 1.111586093902588 L 2.15532398223877 1.271281719207764 L 3.056248664855957 2.256300926208496 L 3.712795972824097 2.974133968353271 L 4.148199081420898 2.271790981292725 L 4.867437839508057 1.111586093902588 M 3.706212997436523 3.320663452148438 L 2.791698694229126 3.812090873718262 C 2.299608707427979 4.076510906219482 2.005828857421875 4.503470897674561 2.005828857421875 4.954200744628906 C 2.005828857421875 5.708630561828613 2.83742880821228 6.346000671386719 3.821778774261475 6.346000671386719 C 4.76564884185791 6.346000671386719 5.399818897247314 5.786680698394775 5.399818897247314 4.954200744628906 C 5.399818897247314 4.400450706481934 5.098418712615967 3.93652081489563 4.593578815460205 3.713200807571411 L 3.706212997436523 3.320663452148438 M 6.733098983764648 9.5367431640625e-07 L 4.998128890991211 2.798680782318115 C 5.871938705444336 3.185220718383789 6.399818897247314 4.005180835723877 6.399818897247314 4.954200744628906 C 6.399818897247314 6.275170803070068 5.377188682556152 7.346000671386719 3.821778774261475 7.346000671386719 C 2.266448974609375 7.346000671386719 1.005828857421875 6.275170803070068 1.005828857421875 4.954200744628906 C 1.005828857421875 4.10265064239502 1.529488563537598 3.355110883712769 2.31834888458252 2.931210994720459 L -1.430511474609375e-06 0.396461009979248 L 6.733098983764648 9.5367431640625e-07 Z" stroke="none" fill="#d2c951"/>
      </g>
      <g id="Trazado_88" data-name="Trazado 88" transform="translate(742.234 899.395)" fill="#db8383">
        <path d="M0-1.088A66.174,66.174,0,0,0,7.881,4a16.931,16.931,0,0,0,5.92,1.91A11.155,11.155,0,0,0,18.587,4,47.386,47.386,0,0,0,24.628-1.2v.6A33.8,33.8,0,0,1,18.976,4.8,8.777,8.777,0,0,1,13.8,6.6a17.2,17.2,0,0,1-5.92-1.8A47.134,47.134,0,0,1,0-.519Z" stroke="none"/>
        <path d="M 24.62764549255371 -1.201535224914551 L 24.62764549255371 -0.604945182800293 C 24.62764549255371 -0.604945182800293 21.63406372070313 3.019284725189209 18.9764347076416 4.80019474029541 C 16.63494873046875 6.369260787963867 14.78698825836182 6.615233421325684 14.04109287261963 6.615233421325684 C 13.9403829574585 6.615233421325684 13.85986995697021 6.610756397247314 13.80083465576172 6.60444450378418 C 13.22782421112061 6.580614566802979 11.21302509307861 6.339114665985107 7.880775451660156 4.80019474029541 C 4.548524856567383 3.261284589767456 -5.7220458984375e-06 -0.5192151069641113 -5.7220458984375e-06 -0.5192151069641113 L -5.7220458984375e-06 -1.087695121765137 C -5.7220458984375e-06 -1.087695121765137 4.430564880371094 2.253634691238403 7.880775451660156 4.004204750061035 C 11.3309850692749 5.75478458404541 13.80083465576172 5.914584636688232 13.80083465576172 5.914584636688232 C 13.80083465576172 5.914584636688232 15.92887496948242 5.75478458404541 18.58650398254395 4.004204750061035 C 21.2441349029541 2.253634691238403 24.62764549255371 -1.201535224914551 24.62764549255371 -1.201535224914551 Z" stroke="none" fill="#707070"/>
      </g>
      <g id="Trazado_89" data-name="Trazado 89" transform="translate(835.998 898.574)" fill="#db8383">
        <path d="M0-1.088A54.235,54.235,0,0,0,6.4,4a11.9,11.9,0,0,0,4.81,1.91A8.063,8.063,0,0,0,15.1,4,42.339,42.339,0,0,0,20.01-1.2v.6A31.25,31.25,0,0,1,15.418,4.8c-2.159,1.781-3.8,1.857-4.205,1.8A12.04,12.04,0,0,1,6.4,4.8,39.171,39.171,0,0,1,0-.519Z" stroke="none"/>
        <path d="M 20.01013946533203 -1.201535224914551 L 20.01013946533203 -0.604945182800293 C 20.01013946533203 -0.604945182800293 17.57782936096191 3.019284725189209 15.41848945617676 4.80019474029541 C 13.51601791381836 6.369260787963867 12.01453399658203 6.615233421325684 11.40849018096924 6.615233421325684 C 11.32666206359863 6.615233421325684 11.26124477386475 6.610756397247314 11.21327877044678 6.60444450378418 C 10.74769878387451 6.580614566802979 9.110658645629883 6.339114665985107 6.403179168701172 4.80019474029541 C 3.695709228515625 3.261284589767456 -1.9073486328125e-06 -0.5192151069641113 -1.9073486328125e-06 -0.5192151069641113 L -1.9073486328125e-06 -1.087695121765137 C -1.9073486328125e-06 -1.087695121765137 3.599868774414063 2.253634691238403 6.403179168701172 4.004204750061035 C 9.206499099731445 5.75478458404541 11.21327877044678 5.914584636688232 11.21327877044678 5.914584636688232 C 11.21327877044678 5.914584636688232 12.9423189163208 5.75478458404541 15.10166931152344 4.004204750061035 C 17.26100921630859 2.253634691238403 20.01013946533203 -1.201535224914551 20.01013946533203 -1.201535224914551 Z" stroke="none" fill="#707070"/>
      </g>
      <g id="Trazado_90" data-name="Trazado 90" transform="translate(780.662 899.684)" fill="#ddd">
        <path d="M 40.42411041259766 35.36925888061523 L 6.075358867645264 35.36925888061523 L 3.517757415771484 0.4999975264072418 L 44.06455993652344 0.4999975264072418 L 40.42411041259766 35.36925888061523 Z" stroke="none"/>
        <path d="M 4.055774688720703 0.9999961853027344 L 6.540027618408203 34.86925888061523 L 39.97360229492188 34.86925888061523 L 43.50964736938477 0.9999961853027344 L 4.055774688720703 0.9999961853027344 M 2.979740142822266 -3.814697265625e-06 L 44.61948013305664 -3.814697265625e-06 L 40.87462997436523 35.86925888061523 L 5.610691070556641 35.86925888061523 L 2.979740142822266 -3.814697265625e-06 Z" stroke="none" fill="#707070"/>
      </g>
      <g id="Trazado_91" data-name="Trazado 91" transform="translate(775.641 888.127)" fill="#ddd">
        <path d="M 53.22454452514648 11.53590393066406 L 4.528687477111816 11.53590393066406 L 3.527168273925781 0.5000038743019104 L 53.98976516723633 0.5000038743019104 L 53.22454452514648 11.53590393066406 Z" stroke="none"/>
        <path d="M 4.074596405029297 1.000003814697266 L 4.985370635986328 11.03590393066406 L 52.75800323486328 11.03590393066406 L 53.45388793945313 1.000003814697266 L 4.074596405029297 1.000003814697266 M 2.979732513427734 3.814697265625e-06 L 54.5256233215332 3.814697265625e-06 L 53.69106292724609 12.03590393066406 L 4.072010040283203 12.03590393066406 L 2.979732513427734 3.814697265625e-06 Z" stroke="none" fill="#707070"/>
      </g>
      <g id="Rectángulo_53" data-name="Rectángulo 53" transform="translate(751 825)" fill="#6a898b" stroke="#707070" stroke-width="1">
        <rect width="4" height="9" stroke="none"/>
        <rect x="0.5" y="0.5" width="3" height="8" fill="none"/>
      </g>
      <g id="Rectángulo_54" data-name="Rectángulo 54" transform="translate(756 825)" fill="#6a898b" stroke="#707070" stroke-width="1">
        <rect id="fill" height="9" stroke="none"/>
        <path d="M0,0.5h0.000010000005204346962M0.5,0v9M0.000010000005204346962,8.5h-0.000010000005204346962M-0.49998999999479565,9v-9" fill="none" clip-path="url(#clip)"/>
      </g>
      <g id="Rectángulo_55" data-name="Rectángulo 55" transform="translate(806 825)" fill="#6a898b" stroke="#707070" stroke-width="1">
        <rect width="2" height="9" stroke="none"/>
        <rect x="0.5" y="0.5" width="1" height="8" fill="none"/>
      </g>
      <g id="Rectángulo_56" data-name="Rectángulo 56" transform="translate(800 825)" fill="#6a898b" stroke="#707070" stroke-width="1">
        <rect width="3" height="9" stroke="none"/>
        <rect x="0.5" y="0.5" width="2" height="8" fill="none"/>
      </g>
      <g id="Rectángulo_57" data-name="Rectángulo 57" transform="translate(854 825)" fill="#6a898b" stroke="#707070" stroke-width="1">
        <rect width="1" height="10" stroke="none"/>
        <rect x="0.5" y="0.5" height="9" fill="none"/>
      </g>
      <g id="Rectángulo_58" data-name="Rectángulo 58" transform="translate(852 825)" fill="#6a898b" stroke="#707070" stroke-width="1">
        <rect width="1" height="9" stroke="none"/>
        <rect x="0.5" y="0.5" height="8" fill="none"/>
      </g>
      <g id="Trazado_92" data-name="Trazado 92" transform="translate(790.327 905.087)" fill="#fff24b">
        <path d="M 5.317078113555908 21.39962577819824 L 7.968981742858887 12.95702171325684 L 8.07163143157959 12.6302318572998 L 7.803981781005859 12.41648197174072 L 1.427327752113342 7.323992252349854 L 9.338541984558105 7.323992252349854 L 9.644951820373535 7.323992252349854 L 9.784051895141602 7.050981998443604 L 12.81942272186279 1.093514442443848 L 15.91171169281006 7.054242134094238 L 16.05165100097656 7.323992252349854 L 16.35554122924805 7.323992252349854 L 24.48052215576172 7.323992252349854 L 19.6831111907959 12.46609210968018 L 19.47146224975586 12.69295215606689 L 19.58075141906738 12.98331165313721 L 22.31048583984375 20.23571395874023 L 13.6872615814209 16.60708236694336 L 13.45328140258789 16.50862121582031 L 13.23572158813477 16.63941192626953 L 5.317078113555908 21.39962577819824 Z" stroke="none"/>
        <path d="M 12.8234281539917 2.187017440795898 L 10.22955131530762 7.277972221374512 L 9.951351165771484 7.823991775512695 L 9.338541030883789 7.823991775512695 L 2.854644775390625 7.823991775512695 L 8.115991592407227 12.02578163146973 L 8.651290893554688 12.45328235626221 L 8.446001052856445 13.10685157775879 L 6.189058303833008 20.29206085205078 L 12.97812175750732 16.21088218688965 L 13.41324138641357 15.94931221008301 L 13.88119125366211 16.14622116088867 L 21.43309783935547 19.32404708862305 L 19.11280059814453 13.15944194793701 L 18.89422225952148 12.57871246337891 L 19.31751251220703 12.12500190734863 L 23.33021354675293 7.823991775512695 L 16.35554122924805 7.823991775512695 L 15.74776172637939 7.823991775512695 L 15.46788120269775 7.284492492675781 L 12.8234281539917 2.187017440795898 M 12.81541156768799 1.9073486328125e-06 L 16.35554122924805 6.823991775512695 L 25.63082122802734 6.823991775512695 L 20.04870223999023 12.80718231201172 L 23.1878719329834 21.14738273620605 L 13.49333190917969 17.06794166564941 L 4.445091247558594 22.5072021484375 L 7.491962432861328 12.80718231201172 L 1.9073486328125e-06 6.823991775512695 L 9.338541030883789 6.823991775512695 L 12.81541156768799 1.9073486328125e-06 Z" stroke="none" fill="#707070"/>
      </g>
      <path id="Trazado_93" data-name="Trazado 93" d="M39.615.169,71.369,83.194l-71.01-.3L29.593.218Z" transform="translate(723.315 842.751) rotate(-14)" opacity="0.5" fill="url(#linear-gradient)"/>
      <g id="Trazado_94" data-name="Trazado 94" transform="translate(744.638 899.395)" fill="#db8383">
        <path d="M 61.80385971069336 20.86610794067383 C 61.31135940551758 20.86610794067383 60.97592926025391 20.84982109069824 60.78127288818359 20.83617973327637 L 60.77059936523438 20.83542251586914 L 60.75991439819336 20.83513641357422 C 59.14485931396484 20.79107856750488 50.30454254150391 20.33392143249512 34.83327102661133 15.64743614196777 C 27.28851509094238 13.3620080947876 18.28767204284668 9.320635795593262 12.06547260284424 6.332793235778809 C 6.186076641082764 3.50957727432251 1.614424824714661 1.070495009422302 0.5000011920928955 0.470323920249939 L 0.5000011920928955 -0.07179218530654907 C 4.174430370330811 1.715130925178528 21.12516212463379 9.841060638427734 34.53042984008789 14.30227947235107 C 42.40692901611328 16.92354965209961 49.10248565673828 18.28983688354492 53.3323860168457 18.97442245483398 C 57.9249153137207 19.71769332885742 60.61289978027344 19.83806419372559 60.7250862121582 19.84283638000488 L 60.74798583984375 19.84380722045898 L 60.7708854675293 19.84267997741699 C 60.86797332763672 19.83789253234863 63.19244384765625 19.71697998046875 66.98832702636719 18.97146415710449 C 70.48305511474609 18.28509330749512 75.92588806152344 16.91520690917969 82.0093994140625 14.286865234375 C 92.09491729736328 9.929469108581543 104.6801528930664 1.838027715682983 107.9020309448242 -0.2725342810153961 L 107.9020309448242 0.2778633534908295 C 107.1365661621094 0.8763403296470642 104.11572265625 3.210649490356445 100.0620574951172 5.987479209899902 C 95.74178314208984 8.946950912475586 89.33131408691406 13.02877902984619 83.32623291015625 15.66822242736816 C 72.35312652587891 20.49126434326172 64.07854461669922 20.86610794067383 61.80385971069336 20.86610794067383 Z" stroke="none"/>
        <path d="M 101.677604675293 4.255470275878906 C 96.26375579833984 7.571817398071289 88.71870422363281 11.9328088760376 82.20771789550781 14.74585056304932 C 76.08347320556641 17.39180755615234 70.60343933105469 18.7710075378418 67.08468627929688 19.46209335327148 C 63.50898361206055 20.16435813903809 61.21510696411133 20.31805610656738 60.84506988525391 20.3393726348877 C 61.03538131713867 20.35200500488281 61.34953689575195 20.36610794067383 61.80385971069336 20.36610794067383 C 64.05390167236328 20.36610794067383 72.24114227294922 19.99432182312012 83.12503051757813 15.21047973632813 C 89.09246063232422 12.58760833740234 95.47184753417969 8.525479316711426 99.77268981933594 5.57965087890625 C 100.437385559082 5.12436580657959 101.0739898681641 4.681183815002441 101.677604675293 4.255470275878906 M 14.56858062744141 6.967374801635742 C 20.56892395019531 9.781552314758301 28.34305572509766 13.15900611877441 34.97823333740234 15.16889381408691 C 49.01514053344727 19.42090797424316 57.55208587646484 20.17708778381348 60.17425155639648 20.31114959716797 C 59.16439056396484 20.24204254150391 56.75576400756836 20.03497695922852 53.25250244140625 19.46799278259277 C 49.00445938110352 18.78047943115234 42.28064727783203 17.40849304199219 34.37254333496094 14.77670764923096 C 27.96835327148438 12.64541625976563 20.75910186767578 9.680678367614746 14.56858062744141 6.967374801635742 M 108.4020309448242 -1.201534271240234 L 108.4020309448242 0.5208797454833984 C 108.4020309448242 0.5208797454833984 95.22535705566406 10.98432159423828 83.52742004394531 16.12594985961914 C 73.22103881835938 20.65595626831055 65.0870361328125 21.36610221862793 61.80386352539063 21.36610221862793 C 61.36057281494141 21.36610221862793 61.00613784790039 21.35317420959473 60.74628829956055 21.33495140075684 C 58.22411727905273 21.26615142822266 49.35568618774414 20.56893539428711 34.68831634521484 16.12594985961914 C 20.02094268798828 11.68297958374023 0 0.7683925628662109 0 0.7683925628662109 L 0 -0.87286376953125 C 0 -0.87286376953125 19.50174713134766 8.773836135864258 34.68831634521484 13.82786464691162 C 49.87488555908203 18.88190841674805 60.74628829956055 19.3432788848877 60.74628829956055 19.3432788848877 C 60.74628829956055 19.3432788848877 70.1131591796875 18.88190841674805 81.81110382080078 13.82786464691162 C 93.509033203125 8.773836135864258 108.4020309448242 -1.201534271240234 108.4020309448242 -1.201534271240234 Z" stroke="none" fill="#707070"/>
      </g>
      <g id="Trazado_95" data-name="Trazado 95" transform="translate(740.821 836.236) rotate(-17)" fill="#6a898b">
        <path d="M 0.7600170969963074 13.24847412109375 L 4.889174461364746 0.5248374938964844 L 20.61580657958984 0.6046988368034363 L 26.32187652587891 13.11403846740723 L 0.7600170969963074 13.24847412109375 Z" stroke="none"/>
        <path d="M 5.251985549926758 1.02668285369873 L 1.449138641357422 12.7448263168335 L 25.54609298706055 12.61810398101807 L 20.2935733795166 1.10307502746582 L 5.251985549926758 1.02668285369873 M 4.526369094848633 0.02298259735107422 L 20.93803787231445 0.1063318252563477 L 27.09764862060547 13.60996246337891 L 0.07090950012207031 13.7520923614502 L 4.526369094848633 0.02298259735107422 Z" stroke="none" fill="#707070"/>
      </g>
      <g id="Trazado_96" data-name="Trazado 96" transform="translate(852.467 898.426) rotate(7)" fill="#fff24b">
        <path d="M 1.33008337020874 34.77652359008789 L 0.5098544359207153 0.8711842894554138 L 3.064817428588867 0.5574724674224854 L 2.98883843421936 34.57285308837891 L 1.33008337020874 34.77652359008789 Z" stroke="none"/>
        <path d="M 2.563552379608154 1.122779846191406 L 1.020676374435425 1.312225341796875 L 1.816603779792786 34.2130241394043 L 2.489824295043945 34.13036346435547 L 2.563552379608154 1.122779846191406 M 3.566082715988159 -0.0078277587890625 L 3.487852573394775 35.01533126831055 L 0.8435726165771484 35.34001159667969 L -0.000957489013671875 0.4301528930664063 L 3.566082715988159 -0.0078277587890625 Z" stroke="none" fill="#d2c951"/>
      </g>
      <g id="Unión_14" data-name="Unión 14" transform="translate(849.39 889.495)" fill="#fff24b">
        <path d="M 8.38778018951416 9.525886535644531 L 1.084324479103088 9.099786758422852 L 3.57826042175293 6.397813320159912 L 4.017660617828369 5.92176342010498 L 3.445810556411743 5.61733341217041 C 2.473400592803955 5.099643230438232 1.892850518226624 4.22679328918457 1.892850518226624 3.282463312149048 C 1.892850518226624 1.748213291168213 3.41817045211792 0.5000033378601074 5.293050289154053 0.5000033378601074 C 6.198500633239746 0.5000033378601074 6.97588062286377 0.7847133278846741 7.541140556335449 1.323353290557861 C 8.071460723876953 1.828683257102966 8.363520622253418 2.524443387985229 8.363520622253418 3.282463312149048 C 8.363520622253418 4.397343158721924 7.749670505523682 5.332013130187988 6.721460342407227 5.782703399658203 L 6.191290378570557 6.015093326568604 L 6.498310565948486 6.505833148956299 L 8.38778018951416 9.525886535644531 Z" stroke="none"/>
        <path d="M 7.450423717498779 8.97035026550293 L 6.074440479278564 6.77103328704834 L 5.460380554199219 5.789553165435791 L 6.520730495452881 5.324763298034668 C 7.3615403175354 4.956213474273682 7.863520622253418 4.192733287811279 7.863520622253418 3.282463312149048 C 7.863520622253418 1.938583254814148 6.806500434875488 1.000003337860107 5.293050289154053 1.000003337860107 C 3.693870544433594 1.000003337860107 2.392850399017334 2.023913383483887 2.392850399017334 3.282463312149048 C 2.392850399017334 4.038783073425293 2.874320507049561 4.746643543243408 3.680780410766602 5.175973415374756 L 4.824470520019531 5.784843444824219 L 3.945680379867554 6.73693323135376 L 2.168649196624756 8.662199020385742 L 7.450423717498779 8.97035026550293 M 9.325140953063965 10.08142375946045 L 4.765319943089708e-07 9.537373542785645 L 3.210850477218628 6.058683395385742 C 2.11819052696228 5.476983547210693 1.392850518226624 4.45106315612793 1.392850518226624 3.282463312149048 C 1.392850518226624 1.469503283500671 3.138960361480713 3.310241709186812e-06 5.293050289154053 3.310241709186812e-06 C 7.447140693664551 3.310241709186812e-06 8.863520622253418 1.469503283500671 8.863520622253418 3.282463312149048 C 8.863520622253418 4.584823131561279 8.132480621337891 5.710133075714111 6.92219066619873 6.240643501281738 L 9.325140953063965 10.08142375946045 Z" stroke="none" fill="#d2c951"/>
      </g>
      <g id="Trazado_99" data-name="Trazado 99" transform="translate(750.939 934.413) rotate(173)" fill="#fff24b">
        <path d="M 3.987205505371094 34.98671340942383 L 0.5785351991653442 34.56817626953125 L 0.6045640110969543 0.565326988697052 L 2.900870561599731 0.8472787737846375 L 3.987205505371094 34.98671340942383 Z" stroke="none"/>
        <path d="M 3.468904733657837 34.4193115234375 L 2.414755344390869 1.291353702545166 L 1.104131698608398 1.130428910255432 L 1.078874111175537 34.12585067749023 L 3.468904733657837 34.4193115234375 M 4.505516052246094 35.55410766601563 L 0.07819628715515137 35.010498046875 L 0.1049962863326073 0.0002363665698794648 L 3.386996269226074 0.4032163619995117 L 4.505516052246094 35.55410766601563 Z" stroke="none" fill="#d2c951"/>
      </g>
      <g id="Unión_15" data-name="Unión 15" transform="translate(750.348 900.397) rotate(180)" fill="#fff24b">
        <path d="M 6.569584846496582 9.581438064575195 C 5.375514984130859 9.581438064575195 4.259524822235107 9.270617485046387 3.42718505859375 8.70623779296875 C 2.654385089874268 8.182208061218262 2.228775024414063 7.504867553710938 2.228775024414063 6.798977375030518 C 2.228775024414063 5.873037815093994 2.959074974060059 5.006977558135986 4.182324886322021 4.482287406921387 L 4.912954807281494 4.16889762878418 L 4.314024925231934 3.646097660064697 L 1.265612483024597 0.9851372241973877 L 10.51366710662842 0.5504012703895569 L 8.196735382080078 3.534137487411499 L 7.77171516418457 4.081477642059326 L 8.425145149230957 4.312257766723633 C 9.725105285644531 4.771377563476563 10.50120544433594 5.700987815856934 10.50120544433594 6.798977375030518 C 10.50120544433594 8.411247253417969 8.847715377807617 9.581438064575195 6.569584846496582 9.581438064575195 Z" stroke="none"/>
        <path d="M 9.453220367431641 1.100804328918457 L 2.531224250793457 1.426196098327637 L 4.642835140228271 3.269417762756348 L 5.84068489074707 4.315017700195313 L 4.379425048828125 4.941797733306885 C 3.361265182495117 5.378527641296387 2.728775024414063 6.090147495269775 2.728775024414063 6.798977851867676 C 2.728775024414063 7.520777702331543 3.342164993286133 8.044477462768555 3.707795143127441 8.292397499084473 C 4.447315216064453 8.793848037719727 5.490395069122314 9.081438064575195 6.569584846496582 9.081438064575195 C 8.558005332946777 9.081438064575195 10.00120544433594 8.121527671813965 10.00120544433594 6.798977851867676 C 10.00120544433594 5.922447681427002 9.349775314331055 5.169087409973145 8.258625030517578 4.783717632293701 L 6.951765060424805 4.32216739654541 L 7.801815032958984 3.227477550506592 L 9.453220367431641 1.100804328918457 M 11.57410526275635 -2.86102294921875e-06 L 8.591645240783691 3.840797424316406 C 10.09379482269287 4.371317386627197 11.00120544433594 5.496607780456543 11.00120544433594 6.798977851867676 C 11.00120544433594 8.611937522888184 9.243185043334961 10.0814380645752 6.569584846496582 10.0814380645752 C 3.895985126495361 10.0814380645752 1.728775024414063 8.611937522888184 1.728775024414063 6.798977851867676 C 1.728775024414063 5.630377769470215 2.629115104675293 4.604457378387451 3.985225200653076 4.022777557373047 L -4.76837158203125e-06 0.5440778732299805 L 11.57410526275635 -2.86102294921875e-06 Z" stroke="none" fill="#d2c951"/>
      </g>
      <path id="Trazado_102" data-name="Trazado 102" d="M39.509-.291,70.2,82.6l-70.819.521L29.512-.126Z" transform="matrix(0.891, 0.454, -0.454, 0.891, 822.061, 822.295)" opacity="0.5" fill="url(#linear-gradient)"/>
      <g id="Trazado_103" data-name="Trazado 103" transform="matrix(0.914, 0.407, -0.407, 0.914, 842.681, 828.06)" fill="#6a898b">
        <path d="M 0.6041318774223328 13.26034355163574 L 4.880670070648193 0.4670236706733704 L 20.58391761779785 0.3608905971050262 L 26.13247108459473 12.82314968109131 L 0.6041318774223328 13.26034355163574 Z" stroke="none"/>
        <path d="M 20.26018524169922 0.8630819320678711 L 5.241531372070313 0.9645967483520508 L 1.302480697631836 12.74830722808838 L 25.36832809448242 12.33616924285889 L 20.26018524169922 0.8630819320678711 M 20.90763854980469 -0.1413202285766602 L 26.89660835266113 13.31013965606689 L -0.09423065185546875 13.77236938476563 L 4.519798278808594 -0.03055000305175781 L 20.90763854980469 -0.1413202285766602 Z" stroke="none" fill="#707070"/>
      </g>
      <path id="Trazado_104" data-name="Trazado 104" d="M39.657-.013l31.4,82.792L-.027,82.8,29.624.082Z" transform="matrix(1, 0.017, -0.017, 1, 769.419, 839.041)" opacity="0.5" fill="url(#linear-gradient)"/>
      <g id="Trazado_105" data-name="Trazado 105" transform="translate(791.028 829.862)" fill="#6a898b">
        <path d="M 0.6940064430236816 13.22324466705322 L 4.894856452941895 0.4999991059303284 L 20.64827728271484 0.4999991059303284 L 26.29801177978516 12.95939254760742 L 0.6940064430236816 13.22324466705322 Z" stroke="none"/>
        <path d="M 5.256319046020508 0.9999990463256836 L 1.388011932373047 12.71605968475342 L 25.52587699890137 12.46731662750244 L 20.32600021362305 0.9999990463256836 L 5.256319046020508 0.9999990463256836 M 4.533393859863281 -9.5367431640625e-07 L 20.97055435180664 -9.5367431640625e-07 L 27.07014465332031 13.45145893096924 L 3.814697265625e-06 13.73041915893555 L 4.533393859863281 -9.5367431640625e-07 Z" stroke="none" fill="#707070"/>
      </g>
      <g id="Trazado_113" data-name="Trazado 113" transform="matrix(0.998, 0.07, -0.07, 0.998, 827.785, 925.574)" fill="#d6e442">
        <path d="M 1.496807217597961 3.374877214431763 L 5.169776439666748 0.6184504628181458 L 8.835675239562988 3.365614175796509 L 1.496807217597961 3.374877214431763 Z" stroke="none"/>
        <path d="M 5.169991970062256 1.243427276611328 L 2.998594284057617 2.872980833053589 L 7.337210655212402 2.867504596710205 L 5.169991970062256 1.243427276611328 M 5.169560432434082 -0.006526470184326172 L 10.33414077758789 3.863723516464233 L -0.004980087280273438 3.876773595809937 L 5.169560432434082 -0.006526470184326172 Z" stroke="none" fill="#d2c951"/>
      </g>
      <g id="Trazado_106" data-name="Trazado 106" transform="matrix(0.998, -0.07, 0.07, 0.998, 764.435, 927.183)" fill="#d6e442">
        <path d="M 11.0106029510498 3.456234216690063 L 1.773324012756348 3.32180380821228 L 6.340635299682617 0.5924738049507141 L 11.0106029510498 3.456234216690063 Z" stroke="none"/>
        <path d="M 6.337296485900879 1.176952123641968 L 3.541780471801758 2.847494602203369 L 9.195646286010742 2.929775238037109 L 6.337296485900879 1.176952123641968 M 6.343987464904785 0.008003473281860352 L 12.82557773590088 3.982703685760498 L 0.004877090454101563 3.796123504638672 L 6.343987464904785 0.008003473281860352 Z" stroke="none" fill="#d2c951"/>
      </g>
      <g id="Trazado_107" data-name="Trazado 107" transform="translate(831.212 924.823)" fill="#d6e442">
        <path d="M 2.320014953613281 1.715099096298218 L 0.5471848845481873 1.715099096298218 L 0.6569064855575562 0.499999076128006 L 2.320014953613281 0.499999076128006 L 2.320014953613281 1.715099096298218 Z" stroke="none"/>
        <path d="M 1.113793849945068 0.9999990463256836 L 1.094369769096375 1.215099096298218 L 1.820004940032959 1.215099096298218 L 1.820004940032959 0.9999990463256836 L 1.113793849945068 0.9999990463256836 M 0.2000250816345215 -9.5367431640625e-07 L 2.820004940032959 -9.5367431640625e-07 L 2.820004940032959 2.215099096298218 L -5.006790161132813e-06 2.215099096298218 L 0.2000250816345215 -9.5367431640625e-07 Z" stroke="none" fill="#d2c951"/>
      </g>
      <g id="Trazado_108" data-name="Trazado 108" transform="translate(769.41 925.643)" fill="#d6e442">
        <path d="M 2.940943956375122 1.715099096298218 L 0.4999960362911224 1.715099096298218 L 0.4999960362911224 0.499999076128006 L 2.804754495620728 0.499999076128006 L 2.940943956375122 1.715099096298218 Z" stroke="none"/>
        <path d="M 0.9999959468841553 0.9999990463256836 L 0.9999959468841553 1.215099096298218 L 2.381771802902222 1.215099096298218 L 2.357663154602051 0.9999990463256836 L 0.9999959468841553 0.9999990463256836 M -4.053115844726563e-06 -9.5367431640625e-07 L 3.251846075057983 -9.5367431640625e-07 L 3.500116109848022 2.215099096298218 L -4.053115844726563e-06 2.215099096298218 L -4.053115844726563e-06 -9.5367431640625e-07 Z" stroke="none" fill="#d2c951"/>
      </g>
      <g id="Trazado_109" data-name="Trazado 109" transform="translate(772.86 932.056)" fill="#ddd">
        <path d="M 50.06845474243164 7.740677356719971 L 10.55197429656982 6.816864490509033 L 9.721861839294434 0.5000030398368835 L 52.17545700073242 0.5000030398368835 L 50.06845474243164 7.740677356719971 Z" stroke="none"/>
        <path d="M 10.2918701171875 1.000002861022949 L 10.99190139770508 6.327005863189697 L 49.69578552246094 7.231822490692139 L 51.50922012329102 1.000002861022949 L 10.2918701171875 1.000002861022949 M 9.15185546875 2.86102294921875e-06 L 52.84169387817383 2.86102294921875e-06 L 50.44111633300781 8.249523162841797 L 10.11204528808594 7.306713104248047 L 9.15185546875 2.86102294921875e-06 Z" stroke="none" fill="#707070"/>
      </g>
      <g id="Trazado_114" data-name="Trazado 114" transform="matrix(0.998, 0.07, -0.07, 0.998, 842.917, 934.102)" fill="#fff24b">
        <path d="M 1.494409441947937 5.243032455444336 L 7.660924911499023 0.6153052449226379 L 13.81557083129883 5.227479934692383 L 1.494409441947937 5.243032455444336 Z" stroke="none"/>
        <path d="M 7.661140918731689 1.240281581878662 L 2.996199607849121 4.741136074066162 L 12.31710243225098 4.729370594024658 L 7.661140918731689 1.240281581878662 M 7.660708904266357 -0.009670734405517578 L 15.31403923034668 5.725589275360107 L -0.007381439208984375 5.74492883682251 L 7.660708904266357 -0.009670734405517578 Z" stroke="none" fill="#d2c951"/>
      </g>
      <g id="Trazado_110" data-name="Trazado 110" transform="translate(847.997 932.988)" fill="#fff24b">
        <path d="M 3.678939342498779 2.782520055770874 L 0.5471816062927246 2.782520055770874 L 0.7532990574836731 0.5000001192092896 L 3.678939342498779 0.5000001192092896 L 3.678939342498779 2.782520055770874 Z" stroke="none"/>
        <path d="M 1.210188627243042 1.000000238418579 L 1.09437370300293 2.282520294189453 L 3.178939342498779 2.282520294189453 L 3.178939342498779 1.000000238418579 L 1.210188627243042 1.000000238418579 M 0.2964193820953369 2.384185791015625e-07 L 4.178939342498779 2.384185791015625e-07 L 4.178939342498779 3.282520055770874 L -4.76837158203125e-07 3.282520055770874 L 0.2964193820953369 2.384185791015625e-07 Z" stroke="none" fill="#d2c951"/>
      </g>
      <g id="Trazado_111" data-name="Trazado 111" transform="matrix(0.998, -0.07, 0.07, 0.998, 739.518, 936.091)" fill="#fff24b">
        <path d="M 17.19108772277832 5.375434398651123 L 1.775679707527161 5.15109395980835 L 9.397726058959961 0.596333384513855 L 17.19108772277832 5.375434398651123 Z" stroke="none"/>
        <path d="M 9.394387245178223 1.180811405181885 L 3.544140815734863 4.676784515380859 L 15.37612533569336 4.84897518157959 L 9.394387245178223 1.180811405181885 M 9.401078224182129 0.01186370849609375 L 19.00606727600098 5.901903629302979 L 0.007228851318359375 5.62541389465332 L 9.401078224182129 0.01186370849609375 Z" stroke="none" fill="#d2c951"/>
      </g>
      <g id="Trazado_112" data-name="Trazado 112" transform="translate(746.891 933.809)" fill="#fff24b">
        <path d="M 4.627604007720947 2.782520055770874 L 0.4999966621398926 2.782520055770874 L 0.4999966621398926 0.5000001192092896 L 4.37177562713623 0.5000001192092896 L 4.627604007720947 2.782520055770874 Z" stroke="none"/>
        <path d="M 0.9999966621398926 1.000000238418579 L 0.9999966621398926 2.282520294189453 L 4.068431377410889 2.282520294189453 L 3.924684524536133 1.000000238418579 L 0.9999966621398926 1.000000238418579 M -3.337860107421875e-06 2.384185791015625e-07 L 4.818866729736328 2.384185791015625e-07 L 5.186776638031006 3.282520055770874 L -3.337860107421875e-06 3.282520055770874 L -3.337860107421875e-06 2.384185791015625e-07 Z" stroke="none" fill="#d2c951"/>
      </g>
    </g>
    <text id="Aquí_iría_un_logo.." data-name="Aquí iría un logo.." transform="translate(648 885)" fill="#fff" font-size="40" font-family="Roboto-Bold, Roboto" font-weight="700"><tspan x="0" y="0">Aquí iría un logo..</tspan></text>
  </g>
</svg>
