<svg xmlns="http://www.w3.org/2000/svg" xmlns:xlink="http://www.w3.org/1999/xlink" width="581.787" height="445.666" viewBox="0 0 581.787 445.666">
  <defs>
    <linearGradient id="linear-gradient" x1="0.5" x2="0.5" y2="1" gradientUnits="objectBoundingBox">
      <stop offset="0" stop-color="#fafbd3"/>
      <stop offset="0.459" stop-color="#f7f9cc" stop-opacity="0.918"/>
      <stop offset="1" stop-color="#dadf84" stop-opacity="0"/>
    </linearGradient>
  </defs>
  <g id="Grupo_9" data-name="Grupo 9" transform="translate(-567.463 -299.334)">
    <rect id="Rectángulo_49" data-name="Rectángulo 49" width="465" height="435" transform="translate(611 310)" fill="#84a9ac"/>
    <rect id="Rectángulo_50" data-name="Rectángulo 50" width="465" height="91" transform="translate(611 654)" fill="#eaeaea"/>
    <g id="Trazado_41" data-name="Trazado 41" transform="translate(729.373 575.057)" fill="#db8383">
      <path d="M 137.0402526855469 50.60797882080078 C 135.9311676025391 50.60797882080078 135.1726989746094 50.56941604614258 134.7317199707031 50.53710174560547 L 134.7205657958984 50.53628921508789 L 134.7094116210938 50.53594589233398 C 131.1151885986328 50.43350982666016 111.444221496582 49.37094497680664 77.06672668457031 38.48516464233398 C 69.66593933105469 36.14169692993164 61.02388000488281 32.81529235839844 51.38056945800781 28.59835243225098 C 43.66088104248047 25.22257232666016 35.2869758605957 21.27225875854492 26.4914436340332 16.85707092285156 C 12.75721549987793 9.962753295898438 2.23928427696228 4.056273460388184 0.5000053644180298 3.07320499420166 L 0.5000053644180298 0.3789817988872528 C 3.176037311553955 1.747932553291321 12.95282173156738 6.708902835845947 25.61766242980957 12.65722846984863 C 39.33231735229492 19.09863471984863 59.33631896972656 28.04878997802734 76.75150299072266 34.10735321044922 C 94.17900848388672 40.17019653320313 108.9920043945313 43.33003997802734 118.349723815918 44.91322708129883 C 128.4983825683594 46.63019561767578 134.6124420166016 46.91610336303711 134.6730041503906 46.91878890991211 L 134.6969451904297 46.91985321044922 L 134.7208862304688 46.91863250732422 C 134.7731628417969 46.91594696044922 140.0479125976563 46.62944793701172 148.4227600097656 44.91000747680664 C 156.1433563232422 43.32491683959961 168.1679382324219 40.16119766235352 181.6087799072266 34.09078979492188 C 195.0337219238281 28.02754020690918 210.3729400634766 18.86528968811035 220.8769683837891 12.24679088592529 C 230.2427215576172 6.345481872558594 237.5333251953125 1.36305296421051 239.8641357421875 -0.2462078928947449 L 239.8641357421875 2.555020570755005 C 238.6738891601563 3.532844305038452 231.724609375 9.195716857910156 222.2153778076172 16.00550842285156 C 216.1019744873047 20.38347816467285 210.1424407958984 24.37175941467285 204.5023498535156 27.85957145690918 C 197.4581604003906 32.2156982421875 190.8966064453125 35.79816436767578 184.9999084472656 38.50751113891602 C 160.5631866455078 49.73538589477539 142.1129455566406 50.60797882080078 137.0402526855469 50.60797882080078 Z" stroke="none"/>
      <path d="M 239.3641357421875 0.7048110961914063 C 236.4281158447266 2.719520568847656 229.6377716064453 7.317607879638672 221.1435089111328 12.66979217529297 C 210.6261596679688 19.29672813415527 195.2655639648438 28.47147750854492 181.8145751953125 34.54647827148438 C 168.3318176269531 40.63579177856445 156.2687530517578 43.80960464477539 148.5233154296875 45.3997917175293 C 140.1112518310547 47.12685394287109 134.9617004394531 47.40688323974609 134.7465972900391 47.41797637939453 L 134.69873046875 47.42044830322266 L 134.6508483886719 47.4183235168457 C 134.5899658203125 47.41560363769531 128.4450378417969 47.12829208374023 118.2663192749023 45.40622711181641 C 108.8897552490234 43.81985473632813 94.04743957519531 40.65382385253906 76.58721923828125 34.57957077026367 C 59.15165710449219 28.51394653320313 39.13050842285156 19.55625915527344 25.40510559082031 13.10979080200195 C 13.69290161132813 7.608898162841797 4.447860717773438 2.951210021972656 1 1.195487976074219 L 1 2.781238555908203 C 3.338607788085938 4.09881591796875 13.55020141601563 9.801490783691406 26.72097778320313 16.41282272338867 C 35.50784301757813 20.82357215881348 43.87294006347656 24.7696647644043 51.58387756347656 28.14154052734375 C 61.20994567871094 32.35082244873047 69.83438110351563 35.67057037353516 77.21766662597656 38.00851058959961 C 111.5316314697266 48.8741340637207 131.1410980224609 49.93404006958008 134.7236633300781 50.03616714477539 L 134.7460021972656 50.03678894042969 L 134.7682800292969 50.03844833374023 C 135.2007446289063 50.07013320922852 135.9459228515625 50.10794830322266 137.0401306152344 50.10794830322266 C 142.0872192382813 50.10794830322266 160.4466857910156 49.2386360168457 184.7911682128906 38.05316543579102 C 190.6680908203125 35.3529167175293 197.2100677490234 31.78107261657715 204.2352905273438 27.43685340881348 C 209.8649444580078 23.95563507080078 215.8141021728516 19.97444725036621 221.9175109863281 15.60382080078125 C 231.0143585205078 9.089641571044922 237.76611328125 3.625865936279297 239.3641357421875 2.318363189697266 L 239.3641357421875 0.7048110961914063 M 240.3641357421875 -1.201553344726563 L 240.3641357421875 2.790851593017578 C 240.3641357421875 2.790851593017578 211.14697265625 27.04404067993164 185.2086639404297 38.96185302734375 C 162.3559265136719 49.4619255065918 144.3200378417969 51.10796356201172 137.0401458740234 51.10796356201172 C 136.0572204589844 51.10796356201172 135.2713470458984 51.07799911499023 134.6951599121094 51.03575897216797 C 129.1026306152344 50.87631988525391 109.4383239746094 49.26022720336914 76.91578674316406 38.96185302734375 C 44.39324951171875 28.66347885131836 0 3.364570617675781 0 3.364570617675781 L 0 -0.4397087097167969 C 0 -0.4397087097167969 43.24200439453125 21.92035293579102 76.91578674316406 33.63510131835938 C 110.5895690917969 45.349853515625 134.6951599121094 46.41928863525391 134.6951599121094 46.41928863525391 C 134.6951599121094 46.41928863525391 155.4646606445313 45.349853515625 181.4029693603516 33.63510131835938 C 207.3412780761719 21.92035293579102 240.3641357421875 -1.201553344726563 240.3641357421875 -1.201553344726563 Z" stroke="none" fill="#707070"/>
    </g>
    <g id="Trazado_17" data-name="Trazado 17" transform="translate(965.582 588.884) rotate(7)" fill="#d6e442">
      <path d="M 2.719340085983276 86.59971618652344 L -0.2493909001350403 -17.90009117126465 L 4.677056789398193 -18.50498962402344 L 8.125300407409668 85.93594360351563 L 2.719340085983276 86.59971618652344 Z" stroke="none"/>
      <path d="M 4.195383071899414 -17.94208526611328 L 0.263340950012207 -17.45928955078125 L 3.203538417816162 86.0364990234375 L 7.610480785369873 85.49539184570313 L 4.195383071899414 -17.94208526611328 M 5.158760070800781 -19.06788635253906 L 8.640117645263672 86.37647247314453 L 2.235131740570068 87.16291809082031 L -0.7621111869812012 -18.34088134765625 L 5.158760070800781 -19.06788635253906 Z" stroke="none" fill="#d2c951"/>
    </g>
    <g id="Trazado_23" data-name="Trazado 23" transform="translate(743.121 678.954) rotate(173)" fill="#d6e442">
      <path d="M 6.834146976470947 106.4939880371094 L 0.4814392626285553 105.7139739990234 L 1.107015609741211 0.9264527559280396 L 8.054871559143066 1.779551267623901 L 6.834146976470947 106.4939880371094 Z" stroke="none"/>
      <path d="M 6.340687274932861 105.9296340942383 L 7.54968786239624 2.221280336380005 L 1.603658199310303 1.491186618804932 L 0.984093189239502 105.2719345092773 L 6.340687274932861 105.9296340942383 M 7.327593803405762 107.0583190917969 L -0.02120603993535042 106.156005859375 L 0.610379695892334 0.3617181479930878 L 8.560050964355469 1.337832450866699 L 7.327593803405762 107.0583190917969 Z" stroke="none" fill="#d2c951"/>
    </g>
    <g id="Polígono_8" data-name="Polígono 8" transform="matrix(0.998, 0.07, -0.07, 0.998, 942.448, 676.895)" fill="#d6e442">
      <path d="M 35.63622283935547 13.67114353179932 L 1.478599429130554 13.67114353179932 L 18.55741119384766 0.6291171908378601 L 35.63622283935547 13.67114353179932 Z" stroke="none"/>
      <path d="M 18.55741119384766 1.258233070373535 L 2.957199096679688 13.17114353179932 L 34.15762329101563 13.17114353179932 L 18.55741119384766 1.258233070373535 M 18.55741119384766 3.814697265625e-06 L 37.11482238769531 14.17114353179932 L 0 14.17114353179932 L 18.55741119384766 3.814697265625e-06 Z" stroke="none" fill="#d2c951"/>
    </g>
    <g id="Trazado_29" data-name="Trazado 29" transform="matrix(0.998, -0.07, 0.07, 0.998, 714.605, 683.122)" fill="#d6e442">
      <path d="M 44.71247100830078 13.66357707977295 L 2.218499183654785 13.08845901489258 L 23.24589729309082 0.2759304642677307 L 44.71247100830078 13.66357707977295 Z" stroke="none"/>
      <path d="M 23.24285316467285 0.8632936477661133 L 3.96136474609375 12.61199569702148 L 42.92705535888672 13.13936138153076 L 23.24285316467285 0.8632936477661133 M 23.24895095825195 -0.3114376068115234 L 46.49789047241211 14.18778228759766 L 0.4756507873535156 13.56491279602051 L 23.24895095825195 -0.3114376068115234 Z" stroke="none" fill="#d2c951"/>
    </g>
    <g id="Trazado_18" data-name="Trazado 18" transform="translate(954.753 674.148)" fill="#d6e442">
      <path d="M 9.622221946716309 7.597797870635986 L 0.5462990999221802 7.597797870635986 L 1.175615549087524 0.4999977350234985 L 9.622221946716309 0.4999977350234985 L 9.622221946716309 7.597797870635986 Z" stroke="none"/>
      <path d="M 1.633238792419434 0.999997615814209 L 1.092586517333984 7.097797870635986 L 9.122221946716309 7.097797870635986 L 9.122221946716309 0.999997615814209 L 1.633238792419434 0.999997615814209 M 0.717982292175293 -1.9073486328125e-06 L 10.12222194671631 -1.9073486328125e-06 L 10.12222194671631 8.097797393798828 L 1.9073486328125e-06 8.097797393798828 L 0.717982292175293 -1.9073486328125e-06 Z" stroke="none" fill="#d2c951"/>
    </g>
    <g id="Trazado_24" data-name="Trazado 24" transform="translate(732.917 677.148)" fill="#d6e442">
      <path d="M 12.00535869598389 7.597797870635986 L 0.5000001192092896 7.597797870635986 L 0.5000001192092896 0.4999977350234985 L 11.22427463531494 0.4999977350234985 L 12.00535869598389 7.597797870635986 Z" stroke="none"/>
      <path d="M 1 0.999997615814209 L 1 7.097797870635986 L 11.44731616973877 7.097797870635986 L 10.77627849578857 0.999997615814209 L 1 0.999997615814209 M 0 -1.9073486328125e-06 L 11.67226982116699 -1.9073486328125e-06 L 12.56340026855469 8.097797393798828 L 0 8.097797393798828 L 0 -1.9073486328125e-06 Z" stroke="none" fill="#d2c951"/>
    </g>
    <g id="Unión_7" data-name="Unión 7" transform="translate(2979 -784)" fill="#d6e442">
      <path d="M -2000.361083984375 1357.291625976563 L -2018.069946289063 1355.973510742188 L -2011.890014648438 1347.432373046875 L -2011.588134765625 1347.01513671875 L -2012.014282226563 1346.725708007813 C -2014.25390625 1345.204345703125 -2015.591064453125 1342.594360351563 -2015.591064453125 1339.743774414063 C -2015.591064453125 1335.198120117188 -2012.162109375 1331.5 -2007.947265625 1331.5 C -2005.937744140625 1331.5 -2004.198974609375 1332.322509765625 -2002.918823242188 1333.878662109375 C -2001.676147460938 1335.389282226563 -2000.99169921875 1337.472290039063 -2000.99169921875 1339.743774414063 C -2000.99169921875 1341.37060546875 -2001.345825195313 1342.920776367188 -2002.015747070313 1344.226684570313 C -2002.67919921875 1345.519897460938 -2003.638305664063 1346.543701171875 -2004.789428710938 1347.187377929688 L -2005.202880859375 1347.418579101563 L -2004.994384765625 1347.843994140625 L -2000.361083984375 1357.291625976563 Z" stroke="none"/>
      <path d="M -2001.194213867188 1356.728149414063 L -2005.443237304688 1348.064086914063 L -2005.860473632813 1347.21337890625 L -2005.033447265625 1346.7509765625 C -2003.968627929688 1346.155517578125 -2003.078979492188 1345.203735351563 -2002.460693359375 1343.998413085938 C -2001.826782226563 1342.762817382813 -2001.49169921875 1341.291625976563 -2001.49169921875 1339.743774414063 C -2001.49169921875 1337.587890625 -2002.135620117188 1335.61767578125 -2003.304931640625 1334.1962890625 C -2004.486938476563 1332.759399414063 -2006.092163085938 1332 -2007.947265625 1332 C -2011.886352539063 1332 -2015.091064453125 1335.473876953125 -2015.091064453125 1339.743774414063 C -2015.091064453125 1342.428466796875 -2013.835815429688 1344.883911132813 -2011.733276367188 1346.31201171875 L -2010.881103515625 1346.890869140625 L -2011.484985351563 1347.725463867188 L -2017.140014648438 1355.541259765625 L -2001.194213867188 1356.728149414063 M -1999.52783203125 1357.85498046875 L -2018.999755859375 1356.405639648438 L -2012.295166015625 1347.139282226563 C -2014.57666015625 1345.589599609375 -2016.091064453125 1342.856811523438 -2016.091064453125 1339.743774414063 C -2016.091064453125 1334.914672851563 -2012.4453125 1331 -2007.947265625 1331 C -2003.44921875 1331 -2000.49169921875 1334.914672851563 -2000.49169921875 1339.743774414063 C -2000.49169921875 1343.213134765625 -2002.018310546875 1346.210693359375 -2004.54541015625 1347.623779296875 L -1999.52783203125 1357.85498046875 Z" stroke="none" fill="#d2c951"/>
    </g>
    <g id="Unión_8" data-name="Unión 8" transform="translate(738.967 576.855) rotate(180)" fill="#d6e442">
      <path d="M 13.71801471710205 26.35498046875 C 8.420334815979004 26.35498046875 4.110354423522949 22.65683937072754 4.110354423522949 18.11120986938477 C 4.110354423522949 15.28044033050537 5.774364471435547 12.67973041534424 8.56158447265625 11.15431022644043 L 9.115303993225098 10.8512601852417 L 8.693544387817383 10.38162040710449 L 1.064522981643677 1.886396527290344 L 23.2440242767334 0.5563039183616638 L 17.51333427429199 9.971230506896973 L 17.2191047668457 10.45462036132813 L 17.73504447937012 10.6870698928833 C 19.18171501159668 11.33884048461914 20.38350486755371 12.36986064910889 21.21047401428223 13.66865062713623 C 22.03556442260742 14.96448040008545 22.47168350219727 16.50069999694824 22.47168350219727 18.11120986938477 C 22.47168350219727 20.36277008056641 21.62536430358887 22.43167114257813 20.08861351013184 23.93680000305176 C 18.47340393066406 25.51878929138184 16.27048492431641 26.35498046875 13.71801471710205 26.35498046875 Z" stroke="none"/>
      <path d="M 22.3200569152832 1.112617492675781 L 2.12904167175293 2.323461532592773 L 9.065554618835449 10.04754066467285 L 9.909064292907715 10.98682975769043 L 8.801624298095703 11.59292030334473 C 6.17718505859375 13.0292501449585 4.610353469848633 15.4660005569458 4.610353469848633 18.11120986938477 C 4.610353469848633 22.38113975524902 8.69603443145752 25.85498046875 13.71801471710205 25.85498046875 C 16.1369743347168 25.85498046875 18.21891403198242 25.06816101074219 19.73875427246094 23.57958984375 C 21.17867469787598 22.16929054260254 21.9716739654541 20.22724914550781 21.9716739654541 18.11120986938477 C 21.9716739654541 16.59598922729492 21.56261444091797 15.1526403427124 20.78870391845703 13.93720054626465 C 20.01420402526855 12.72082042694092 18.88724517822266 11.7545804977417 17.52965545654297 11.14294052124023 L 16.49776458740234 10.67803955078125 L 17.08622360229492 9.711259841918945 L 22.3200569152832 1.112617492675781 M 24.16796493530273 0 L 17.9404239654541 10.231201171875 C 21.076904296875 11.64428997039795 22.9716739654541 14.64185047149658 22.9716739654541 18.11120986938477 C 22.9716739654541 22.94030952453613 19.301025390625 26.85498046875 13.71801471710205 26.85498046875 C 8.13525390625 26.85498046875 3.610353469848633 22.94030952453613 3.610353469848633 18.11120986938477 C 3.610353469848633 14.99816989898682 5.489994049072266 12.26537990570068 8.321534156799316 10.71570014953613 L -5.7220458984375e-06 1.4493408203125 L 24.16796493530273 0 Z" stroke="none" fill="#d2c951"/>
    </g>
    <g id="Trazado_45" data-name="Trazado 45" transform="translate(635.373 578)" fill="#db8383">
      <path d="M 50.39951324462891 26.87445640563965 C 50.00851440429688 26.87445640563965 49.74414825439453 26.8545970916748 49.59122085571289 26.83794975280762 L 49.57477188110352 26.83616256713867 L 49.55825424194336 26.83545684814453 C 48.24886703491211 26.77999687194824 41.07989120483398 26.20362091064453 28.50027847290039 20.28673934936523 C 22.36093711853027 17.39906883239746 15.03071403503418 12.28830337524414 9.96251392364502 8.50938606262207 C 5.10523509979248 4.887755393981934 1.342759370803833 1.76535964012146 0.4999967217445374 1.059883713722229 L 0.4999967217445374 0.2209302484989166 C 3.895443916320801 2.777341842651367 17.35779762268066 12.74412631988525 28.05792617797852 18.27345657348633 C 34.49779510498047 21.60128021240234 39.97430419921875 23.33637428283691 43.43451309204102 24.2059383392334 C 47.19945526123047 25.15209197998047 49.41188049316406 25.30591583251953 49.50420761108398 25.31199645996094 L 49.53972625732422 25.31433868408203 L 49.57522201538086 25.31162071228027 C 49.65544509887695 25.30549240112305 51.57566833496094 25.15043258666992 54.69458389282227 24.19927978515625 C 57.55726623535156 23.32626724243164 62.01476287841797 21.58450317382813 66.99347686767578 18.24448013305664 C 75.00833129882813 12.86761856079102 84.95189666748047 3.010666370391846 87.899169921875 0.02451624721288681 L 87.899169921875 0.8009385466575623 C 87.35243225097656 1.466170430183411 84.85015869140625 4.479856014251709 81.46432495117188 8.081255912780762 C 77.94392395019531 11.82577419281006 72.7213134765625 16.98974990844727 67.83267974853516 20.32619667053223 C 58.92993927001953 26.40224456787109 52.23834991455078 26.87445640563965 50.39951324462891 26.87445640563965 Z" stroke="none"/>
      <path d="M 83.96874237060547 4.603754043579102 C 83.29590606689453 5.250295639038086 82.57502746582031 5.935239791870117 81.81764221191406 6.64410400390625 C 77.93252563476563 10.28033828735352 72.25527954101563 15.31660938262939 67.27201843261719 18.65969085693359 C 62.24234008789063 22.03392791748047 57.73551177978516 23.79464340209961 54.84043121337891 24.67752647399902 C 51.66938400268555 25.64458465576172 49.69580841064453 25.80385589599609 49.61334991455078 25.81016159057617 L 49.54237365722656 25.81559753417969 L 49.47133636474609 25.81091499328613 C 49.37715148925781 25.80470275878906 47.1209602355957 25.64791488647461 43.31265640258789 24.69086837768555 C 39.82679748535156 23.81485557556152 34.31081008911133 22.06745529174805 27.82838439941406 18.71765518188477 C 20.57518768310547 14.96953964233398 12.06116485595703 9.19232177734375 6.252494812011719 5.049386978149414 C 7.459770202636719 5.991359710693359 8.814254760742188 7.029628753662109 10.26659393310547 8.112443923950195 C 17.50599670410156 13.50988006591797 23.88468933105469 17.5632209777832 28.71308898925781 19.83429145812988 C 41.20600891113281 25.71039772033691 48.28681945800781 26.28115081787109 49.57940673828125 26.33590316772461 L 49.61244201660156 26.33730316162109 L 49.64532470703125 26.34087944030762 C 49.78599548339844 26.35619735717773 50.03103256225586 26.37445640563965 50.39949035644531 26.37445640563965 C 52.20211410522461 26.37445640563965 58.76638412475586 25.90851593017578 67.55081939697266 19.91322135925293 C 71.38935852050781 17.2934455871582 76.07270050048828 13.08560943603516 81.09453582763672 7.744621276855469 C 82.14940643310547 6.622711181640625 83.11843872070313 5.557796478271484 83.96874237060547 4.603754043579102 M 88.399169921875 -1.201543807983398 L 88.399169921875 0.9794559478759766 C 88.399169921875 0.9794559478759766 77.65392303466797 14.22864437103271 68.11454010009766 20.73918533325195 C 59.70995330810547 26.47523880004883 53.07683944702148 27.37445068359375 50.39949035644531 27.37445068359375 C 50.03799819946289 27.37445068359375 49.74899291992188 27.35808372497559 49.53709030151367 27.33500862121582 C 47.48031616210938 27.24789237976074 40.24833679199219 26.36504364013672 28.28746795654297 20.73918533325195 C 16.32658386230469 15.11332702636719 0 1.292867660522461 0 1.292867660522461 L 0 -0.7853546142578125 C 0 -0.7853546142578125 15.90318298339844 11.42964458465576 28.28746795654297 17.82925605773926 C 40.67173767089844 24.22886848449707 49.53709030151367 24.81307983398438 49.53709030151367 24.81307983398438 C 49.53709030151367 24.81307983398438 57.175537109375 24.22886848449707 66.71491241455078 17.82925605773926 C 76.25428771972656 11.42964458465576 88.399169921875 -1.201543807983398 88.399169921875 -1.201543807983398 Z" stroke="none" fill="#707070"/>
    </g>
    <g id="Trazado_47" data-name="Trazado 47" transform="translate(971.93 575)" fill="#db8383">
      <path d="M 40.94997406005859 26.87445640563965 C 40.64162445068359 26.87445640563965 40.43484497070313 26.85540771484375 40.31566619873047 26.83943748474121 L 40.29554748535156 26.83673667907715 L 40.27527618408203 26.8356876373291 C 39.21783447265625 26.78056716918945 33.42658615112305 26.20672607421875 23.23426628112793 20.30646705627441 C 18.25461578369141 17.42377662658691 12.30480575561523 12.31797695159912 8.190395355224609 8.542346954345703 C 4.236423969268799 4.913947105407715 1.175547003746033 1.786737322807312 0.5000056028366089 1.090641617774963 L 0.5000056028366089 0.3633261620998383 C 3.540540218353271 3.172654628753662 14.20160102844238 12.83637809753418 22.71543502807617 18.25115585327148 C 27.96005630493164 21.58672714233398 32.42229461669922 23.32653617858887 35.24212646484375 24.19869613647461 C 38.31786727905273 25.1500072479248 40.133056640625 25.30529594421387 40.20882415771484 25.31143760681152 L 40.25248718261719 25.31497764587402 L 40.29610443115234 25.31087684631348 C 40.36216735839844 25.30465698242188 41.94343566894531 25.14755630493164 44.49694442749023 24.18913650512695 C 46.83223724365234 23.3126163482666 50.46761703491211 21.56461715698242 54.52469635009766 18.21481704711914 C 60.874755859375 12.97176265716553 68.71151733398438 3.474913120269775 71.32495880126953 0.2283714562654495 L 71.32495880126953 0.8283132314682007 C 70.41621398925781 2.188373565673828 62.23027038574219 14.30148601531982 55.02196502685547 20.35632705688477 C 47.82170486450195 26.4044075012207 42.43073654174805 26.87445640563965 40.94997406005859 26.87445640563965 Z" stroke="none"/>
      <path d="M 66.32571411132813 6.973548889160156 C 61.87814331054688 12.06993103027344 58.01664352416992 15.9800271987915 54.84303283691406 18.60037612915039 C 46.94603729248047 25.12069702148438 40.60886383056641 25.78364753723145 40.34296417236328 25.80867767333984 L 40.2557373046875 25.81688690185547 L 40.16840362548828 25.80980682373047 C 40.09040832519531 25.80347633361816 38.2220573425293 25.64373588562012 35.09438705444336 24.67636680603027 C 32.24534606933594 23.7951774597168 27.73846435546875 22.0383472442627 22.44710540771484 18.67305755615234 C 17.69183731079102 15.64871311187744 12.27252578735352 11.30717277526855 7.875236511230469 7.565376281738281 C 12.46774291992188 11.81885051727295 18.48584747314453 16.97988891601563 23.48476409912109 19.87372589111328 C 33.57789611816406 25.71658706665039 39.26394653320313 26.28228759765625 40.30130767822266 26.33636665344238 L 40.34185791015625 26.33847618103027 L 40.38211822509766 26.34387588500977 C 40.46728515625 26.35528755187988 40.65432739257813 26.37444686889648 40.94995498657227 26.37444686889648 C 42.38799285888672 26.37444686889648 47.6295166015625 25.91285705566406 54.70037841796875 19.97346687316895 C 58.75642395019531 16.56646347045898 63.13174438476563 11.21587562561035 66.32571411132813 6.973548889160156 M 71.82494354248047 -1.201543807983398 L 71.82494354248047 0.9794464111328125 C 71.82494354248047 0.9794464111328125 63.09436416625977 14.22864723205566 55.34355545043945 20.73917770385742 C 48.51476287841797 26.47523880004883 43.12532043457031 27.37444877624512 40.94995880126953 27.37444877624512 C 40.65624237060547 27.37444877624512 40.42141723632813 27.35808181762695 40.24924468994141 27.33500671386719 C 38.57809448242188 27.24789619445801 32.70206451416016 26.36504745483398 22.9837646484375 20.73917770385742 C 13.26547622680664 15.11332702636719 -7.62939453125e-06 1.292867660522461 -7.62939453125e-06 1.292867660522461 L -7.62939453125e-06 -0.7853622436523438 C -7.62939453125e-06 -0.7853622436523438 12.92145538330078 11.42964649200439 22.9837646484375 17.82925796508789 C 33.04607391357422 24.22886657714844 40.24924468994141 24.81307601928711 40.24924468994141 24.81307601928711 C 40.24924468994141 24.81307601928711 46.45553588867188 24.22886657714844 54.20634460449219 17.82925796508789 C 61.9571533203125 11.42964649200439 71.82494354248047 -1.201543807983398 71.82494354248047 -1.201543807983398 Z" stroke="none" fill="#707070"/>
    </g>
    <g id="Trazado_42" data-name="Trazado 42" transform="translate(781.02 582.248)" fill="#ddd">
      <path d="M 138.5493774414063 130.6282348632813 L 12.8886194229126 130.6282348632813 L 3.517037630081177 0.4999974370002747 L 151.8887481689453 0.4999974370002747 L 138.5493774414063 130.6282348632813 Z" stroke="none"/>
      <path d="M 4.054351806640625 1 L 13.35391235351563 130.1282348632813 L 138.0979919433594 130.1282348632813 L 151.3348846435547 1 L 4.054351806640625 1 M 2.979736328125 0 L 152.442626953125 0 L 139.0007171630859 131.1282348632813 L 12.42333984375 131.1282348632813 L 2.979736328125 0 Z" stroke="none" fill="#707070"/>
    </g>
    <g id="Trazado_43" data-name="Trazado 43" transform="translate(769 700.591)" fill="#ddd">
      <path d="M 156.9821166992188 29.64896774291992 L 13.03933906555176 26.22172546386719 L 9.720511436462402 0.5000100135803223 L 165.3105163574219 0.5000100135803223 L 156.9821166992188 29.64896774291992 Z" stroke="none"/>
      <path d="M 10.2891845703125 0.9999904632568359 L 13.48031616210938 25.73208236694336 L 156.6075744628906 29.1398868560791 L 164.6476440429688 0.9999904632568359 L 10.2891845703125 0.9999904632568359 M 9.15185546875 -9.5367431640625e-06 L 165.973388671875 -9.5367431640625e-06 L 157.356689453125 30.15801048278809 L 12.598388671875 26.71137046813965 L 9.15185546875 -9.5367431640625e-06 Z" stroke="none" fill="#707070"/>
    </g>
    <g id="Trazado_44" data-name="Trazado 44" transform="translate(763 540)" fill="#ddd">
      <path d="M 184.5372924804688 43.5 L 7.357817649841309 43.5 L 3.526280164718628 0.5 L 187.4648284912109 0.5 L 184.5372924804688 43.5 Z" stroke="none"/>
      <path d="M 4.072784423828125 1 L 7.81524658203125 43 L 184.0701599121094 43 L 186.9295959472656 1 L 4.072784423828125 1 M 2.979721069335938 0 L 187.9999847412109 0 L 185.00439453125 44 L 6.900390625 44 L 2.979721069335938 0 Z" stroke="none" fill="#707070"/>
    </g>
    <g id="Rectángulo_43" data-name="Rectángulo 43" transform="translate(672 310)" fill="#6a898b" stroke="#707070" stroke-width="1">
      <rect width="7" height="30" stroke="none"/>
      <rect x="0.5" y="0.5" width="6" height="29" fill="none"/>
    </g>
    <g id="Rectángulo_48" data-name="Rectángulo 48" transform="translate(682 310)" fill="#6a898b" stroke="#707070" stroke-width="1">
      <rect width="4" height="30" stroke="none"/>
      <rect x="0.5" y="0.5" width="3" height="29" fill="none"/>
    </g>
    <g id="Rectángulo_44" data-name="Rectángulo 44" transform="translate(864 310)" fill="#6a898b" stroke="#707070" stroke-width="1">
      <rect width="6" height="30" stroke="none"/>
      <rect x="0.5" y="0.5" width="5" height="29" fill="none"/>
    </g>
    <g id="Rectángulo_45" data-name="Rectángulo 45" transform="translate(843 310)" fill="#6a898b" stroke="#707070" stroke-width="1">
      <rect width="7" height="30" stroke="none"/>
      <rect x="0.5" y="0.5" width="6" height="29" fill="none"/>
    </g>
    <g id="Rectángulo_46" data-name="Rectángulo 46" transform="translate(1037 310)" fill="#6a898b" stroke="#707070" stroke-width="1">
      <rect width="7" height="33" stroke="none"/>
      <rect x="0.5" y="0.5" width="6" height="32" fill="none"/>
    </g>
    <g id="Rectángulo_47" data-name="Rectángulo 47" transform="translate(1027 310)" fill="#6a898b" stroke="#707070" stroke-width="1">
      <rect width="7" height="31" stroke="none"/>
      <rect x="0.5" y="0.5" width="6" height="30" fill="none"/>
    </g>
    <g id="Trazado_54" data-name="Trazado 54" transform="translate(808 602)" fill="#fff24b">
      <path d="M 16.82326316833496 81.16255950927734 L 27.3696346282959 46.9669303894043 L 27.46907043457031 46.64455413818359 L 27.20734024047852 46.43168258666992 L 1.407123208045959 25.44665908813477 L 33.52002334594727 25.44665908813477 L 33.82896423339844 25.44665908813477 L 33.96718978881836 25.17036437988281 L 46.00402450561523 1.109513759613037 L 58.26150512695313 25.1736011505127 L 58.40058898925781 25.44665908813477 L 58.70703506469727 25.44665908813477 L 90.86389923095703 25.44665908813477 L 71.59468078613281 46.48183441162109 L 71.38863372802734 46.7067756652832 L 71.49437713623047 46.99290466308594 L 82.35895538330078 76.39127349853516 L 48.63031768798828 61.93617630004883 L 48.39273071289063 61.83435440063477 L 48.17227172851563 61.96932983398438 L 16.82326316833496 81.16255950927734 Z" stroke="none"/>
      <path d="M 46.00804901123047 2.219024658203125 L 34.41436386108398 25.3940544128418 L 34.13791275024414 25.9466552734375 L 33.52002334594727 25.9466552734375 L 2.814254760742188 25.9466552734375 L 27.52285003662109 46.04379272460938 L 28.04628753662109 46.46954345703125 L 27.84743499755859 47.11429214477539 L 17.69120788574219 80.04489135742188 L 47.91120147705078 61.54290771484375 L 48.35210037231445 61.27296829223633 L 48.82726287841797 61.47660827636719 L 81.48671722412109 75.47348022460938 L 71.02537536621094 47.16623306274414 L 70.81390380859375 46.59396743774414 L 71.22599029541016 46.14410781860352 L 89.72779846191406 25.9466552734375 L 58.70702362060547 25.9466552734375 L 58.09413909912109 25.9466552734375 L 57.81596374511719 25.40053176879883 L 46.00804901123047 2.219024658203125 M 46 -7.62939453125e-06 L 58.70702362060547 24.9466552734375 L 92 24.9466552734375 L 71.96337890625 46.819580078125 L 83.231201171875 77.30908203125 L 48.433349609375 62.39575576782227 L 15.955322265625 82.28020477294922 L 26.89185333251953 46.819580078125 L 0 24.9466552734375 L 33.52002334594727 24.9466552734375 L 46 -7.62939453125e-06 Z" stroke="none" fill="#707070"/>
    </g>
    <path id="Trazado_55" data-name="Trazado 55" d="M142.346,46.145l112.809,302.7H0L106.333,46.479Z" transform="translate(556.3 329.342) rotate(-14)" opacity="0.5" fill="url(#linear-gradient)"/>
    <g id="Trazado_53" data-name="Trazado 53" transform="translate(644 578)" fill="#db8383">
      <path d="M 221.8405609130859 80.79962158203125 C 220.0355072021484 80.79962158203125 218.79931640625 80.73837280273438 218.0800628662109 80.68697357177734 L 218.0692138671875 80.68622589111328 L 218.0583648681641 80.68592834472656 C 214.5009613037109 80.58707427978516 204.4226531982422 80.04647827148438 187.7105560302734 77.16822814941406 C 168.4817657470703 73.85647583007813 147.2680053710938 68.64052581787109 124.6586074829102 61.66527557373047 C 112.6663589477539 57.965576171875 98.66440582275391 52.71467590332031 83.04165649414063 46.05852508544922 C 70.53881072998047 40.73157501220703 56.97681045532227 34.49817657470703 42.73250961303711 27.53152465820313 C 20.05150985717773 16.43862152099609 2.791057586669922 6.968714237213135 0.5000091791152954 5.705075263977051 L 0.5000091791152954 0.8096883893013 C 4.054052352905273 2.585078001022339 20.30592346191406 10.65026473999023 41.60590744018555 20.39707565307617 C 63.80030822753906 30.55312538146973 96.17195892333984 44.66442489624023 124.3507080078125 54.21542358398438 C 152.54150390625 63.77047348022461 176.501953125 68.75027465820313 191.6382141113281 71.24522399902344 C 208.0474548339844 73.95002746582031 217.9250030517578 74.4000244140625 218.0228576660156 74.40427398681641 L 218.0462036132813 74.4052734375 L 218.0695037841797 74.40407562255859 C 218.1539154052734 74.39987182617188 226.6683044433594 73.94927215576172 240.2020111083984 71.24217224121094 C 252.6841583251953 68.74537658691406 272.1250610351563 63.76187515258789 293.8564147949219 54.19952392578125 C 315.5722961425781 44.64397430419922 340.3900451660156 30.20112609863281 357.3855590820313 19.76772499084473 C 373.2765502929688 10.01238632202148 385.4745178222656 1.850607872009277 388.601318359375 -0.2591368556022644 L 388.601318359375 4.855648040771484 C 387.0270080566406 6.118197441101074 375.6282958984375 15.19915199279785 359.9114074707031 26.16512489318848 C 350.0088195800781 33.07442474365234 340.3551025390625 39.36892700195313 331.2184448242188 44.87377548217773 C 319.803466796875 51.75137710571289 309.1693115234375 57.40807342529297 299.6113586425781 61.68672561645508 C 283.4919738769531 68.90262603759766 267.2293090820313 74.20327758789063 251.2752075195313 77.4415283203125 C 236.8798065185547 80.36332702636719 226.6545104980469 80.79962158203125 221.8405609130859 80.79962158203125 Z" stroke="none"/>
      <path d="M 388.101318359375 0.6801300048828125 C 384.0405578613281 3.407447814941406 372.4428405761719 11.11090087890625 357.6471557617188 20.19382476806641 C 340.6383972167969 30.6353759765625 315.7994689941406 45.09032440185547 294.0577697753906 54.65717315673828 C 272.2852172851563 64.2376708984375 252.8066101074219 69.23077392578125 240.3000030517578 71.73247528076172 C 226.7306060791016 74.44672393798828 218.1793060302734 74.89922332763672 218.0945129394531 74.90347290039063 L 218.0478515625 74.90582275390625 L 218.0012054443359 74.90377807617188 C 217.9030609130859 74.89952850341797 207.9954528808594 74.44817352294922 191.5568542480469 71.73857116699219 C 176.4022064208984 69.24057769775391 152.4130554199219 64.25492858886719 124.1902160644531 54.68897247314453 C 95.99139404296875 45.13117599487305 63.6029052734375 31.01262664794922 41.39785766601563 20.85167694091797 C 21.29714965820313 11.65365600585938 5.6885986328125 3.951713562011719 1 1.617630004882813 L 1 5.40960693359375 C 4.111907958984375 7.121734619140625 20.98776245117188 16.33990478515625 42.9521484375 27.08232498168945 C 57.188720703125 34.04522705078125 70.74270629882813 40.27497482299805 83.2376708984375 45.59852600097656 C 98.84457397460938 52.24797439575195 112.8302001953125 57.49282455444336 124.8059997558594 61.18752288818359 C 147.3950042724609 68.15647888183594 168.5877075195313 73.36737823486328 187.79541015625 76.67547607421875 C 204.4757080078125 79.54827880859375 214.5255584716797 80.08757781982422 218.0721588134766 80.18612670898438 L 218.0939025878906 80.18672180175781 L 218.1156158447266 80.18827819824219 C 218.8271026611328 80.23907470703125 220.0509033203125 80.29962158203125 221.8404541015625 80.29962158203125 C 226.6356658935547 80.29962158203125 236.8230590820313 79.86467742919922 251.1756591796875 76.95152282714844 C 267.0938110351563 73.72057342529297 283.3212280273438 68.43122863769531 299.4070434570313 61.23037719726563 C 308.9454650878906 56.96047592163086 319.5601501464844 51.3140754699707 330.956298828125 44.44802474975586 C 340.0825500488281 38.94952392578125 349.7259216308594 32.66192626953125 359.6184997558594 25.75982666015625 C 374.81005859375 15.16069793701172 385.9645385742188 6.323638916015625 388.101318359375 4.615409851074219 L 388.101318359375 0.6801300048828125 M 389.101318359375 -1.201522827148438 L 389.101318359375 5.095176696777344 C 389.101318359375 5.095176696777344 341.8045654296875 43.34662628173828 299.815673828125 62.14307403564453 C 262.8216552734375 78.70349884033203 233.6251983642578 81.29960632324219 221.8404846191406 81.29960632324219 C 220.2493133544922 81.29960632324219 218.9771423339844 81.25234985351563 218.0444030761719 81.18572235107422 C 208.9912567138672 80.93422698974609 177.1587066650391 78.3853759765625 124.5111999511719 62.14307403564453 C 71.86376953125 45.90077590942383 0 5.999977111816406 0 5.999977111816406 L 0 -2.288818359375e-05 C 0 -2.288818359375e-05 70.0001220703125 35.26572418212891 124.5111999511719 53.74187469482422 C 179.0223541259766 72.21807861328125 218.0444030761719 73.90472412109375 218.0444030761719 73.90472412109375 C 218.0444030761719 73.90472412109375 251.6661529541016 72.21807861328125 293.6549987792969 53.74187469482422 C 335.6439208984375 35.26572418212891 389.101318359375 -1.201522827148438 389.101318359375 -1.201522827148438 Z" stroke="none" fill="#707070"/>
    </g>
    <g id="Trazado_59" data-name="Trazado 59" transform="translate(645.859 345.543) rotate(-17)" fill="#6a898b">
      <path d="M -15.58223247528076 49.68740081787109 L 0.3635257482528687 0.4999983012676239 L 58.6753044128418 0.4999983012676239 L 80.12769317626953 48.6828727722168 L -15.58223247528076 49.68740081787109 Z" stroke="none"/>
      <path d="M 0.7270584106445313 1.000003814697266 L -14.89215087890625 49.18012619018555 L 79.361328125 48.19088745117188 L 58.35059356689453 1.000003814697266 L 0.7270584106445313 1.000003814697266 M 0 3.814697265625e-06 L 59.00000381469727 3.814697265625e-06 L 80.89405822753906 49.17485427856445 L -16.27229309082031 50.19466781616211 L 0 3.814697265625e-06 Z" stroke="none" fill="#707070"/>
    </g>
    <g id="Trazado_62" data-name="Trazado 62" transform="translate(1031.844 577.746) rotate(7)" fill="#fff24b">
      <path d="M 2.994083404541016 128.6020355224609 L -0.2920460999011993 2.013015985488892 L 11.50000381469727 0.5651428699493408 L 11.50000381469727 127.5576477050781 L 2.994083404541016 128.6020355224609 Z" stroke="none"/>
      <path d="M 11.00000381469727 1.130294799804688 L 0.2195701599121094 2.453964233398438 L 3.479628562927246 128.0386505126953 L 11.00000381469727 127.1152725219727 L 11.00000381469727 1.130294799804688 M 12.00000381469727 0 L 12.00000381469727 128 L 2.508537292480469 129.1654052734375 L -0.8036623001098633 1.57208251953125 L 12.00000381469727 0 Z" stroke="none" fill="#d2c951"/>
    </g>
    <g id="Polígono_9" data-name="Polígono 9" transform="matrix(0.998, 0.07, -0.07, 0.998, 996.766, 708.071)" fill="#fff24b">
      <path d="M 53.52140045166016 20.5 L 1.47860050201416 20.5 L 27.5 0.629114031791687 L 53.52140045166016 20.5 Z" stroke="none"/>
      <path d="M 27.5 1.258230209350586 L 2.957202911376953 20 L 52.04279708862305 20 L 27.5 1.258230209350586 M 27.5 1.9073486328125e-06 L 55 21 L 0 21 L 27.5 1.9073486328125e-06 Z" stroke="none" fill="#d2c951"/>
    </g>
    <g id="Trazado_63" data-name="Trazado 63" transform="translate(1015 704)" fill="#fff24b">
      <path d="M 14.5 11.5 L 0.5462974905967712 11.5 L 1.521603345870972 0.5 L 14.5 0.5 L 14.5 11.5 Z" stroke="none"/>
      <path d="M 1.979217529296875 1 L 1.092583656311035 11 L 14 11 L 14 1 L 1.979217529296875 1 M 1.063960075378418 0 L 15 0 L 15 12 L 0 12 L 1.063960075378418 0 Z" stroke="none" fill="#d2c951"/>
    </g>
    <g id="Unión_10" data-name="Unión 10" transform="translate(3039 -786)" fill="#fff24b">
      <path d="M -1986.456176757813 1367.299072265625 L -2017.9287109375 1365.428833007813 L -2007.104125976563 1353.484741210938 L -2006.676513671875 1353.012817382813 L -2007.236328125 1352.709350585938 C -2009.123901367188 1351.685913085938 -2010.69873046875 1350.266479492188 -2011.790283203125 1348.6044921875 C -2012.908935546875 1346.901245117188 -2013.500244140625 1344.963256835938 -2013.500244140625 1342.999877929688 C -2013.500244140625 1336.658935546875 -2007.4443359375 1331.500122070313 -2000.000732421875 1331.500122070313 C -1998.181274414063 1331.500122070313 -1996.470947265625 1331.806030273438 -1994.917236328125 1332.4091796875 C -1993.43896484375 1332.983154296875 -1992.134887695313 1333.812255859375 -1991.04150390625 1334.873413085938 C -1988.876831054688 1336.974243164063 -1987.684692382813 1339.860229492188 -1987.684692382813 1342.999877929688 C -1987.684692382813 1345.244873046875 -1988.298706054688 1347.386962890625 -1989.46044921875 1349.19482421875 C -1990.625732421875 1351.00830078125 -1992.31884765625 1352.44775390625 -1994.35693359375 1353.357666015625 L -1994.877563476563 1353.590087890625 L -1994.5791015625 1354.075927734375 L -1986.456176757813 1367.299072265625 Z" stroke="none"/>
      <path d="M -1987.384643554688 1366.743041992188 L -1995.005126953125 1354.337646484375 L -1995.60205078125 1353.365966796875 L -1994.560791015625 1352.901123046875 C -1992.61181640625 1352.031005859375 -1990.99365234375 1350.655883789063 -1989.881103515625 1348.924560546875 C -1988.771240234375 1347.197509765625 -1988.184692382813 1345.148803710938 -1988.184692382813 1342.999877929688 C -1988.184692382813 1339.99658203125 -1989.322875976563 1337.238037109375 -1991.3896484375 1335.232177734375 C -1992.434936523438 1334.217895507813 -1993.6826171875 1333.424926757813 -1995.098266601563 1332.875244140625 C -1996.593994140625 1332.294555664063 -1998.243408203125 1332.000122070313 -2000.000732421875 1332.000122070313 C -2007.168701171875 1332.000122070313 -2013.000244140625 1336.9345703125 -2013.000244140625 1342.999877929688 C -2013.000244140625 1344.865478515625 -2012.437377929688 1346.708618164063 -2011.372314453125 1348.330078125 C -2010.325927734375 1349.923217773438 -2008.813354492188 1351.285522460938 -2006.997924804688 1352.269775390625 L -2005.87841796875 1352.876831054688 L -2006.733642578125 1353.820434570313 L -2016.857666015625 1364.991577148438 L -1987.384643554688 1366.743041992188 M -1985.52783203125 1367.855102539063 L -2018.999755859375 1365.866088867188 L -2007.474609375 1353.14892578125 C -2011.396606445313 1351.0224609375 -2014.000244140625 1347.27197265625 -2014.000244140625 1342.999877929688 C -2014.000244140625 1336.372192382813 -2007.732666015625 1331.000122070313 -2000.000732421875 1331.000122070313 C -1992.268798828125 1331.000122070313 -1987.184692382813 1336.372192382813 -1987.184692382813 1342.999877929688 C -1987.184692382813 1347.760986328125 -1989.808837890625 1351.874755859375 -1994.153076171875 1353.814208984375 L -1985.52783203125 1367.855102539063 Z" stroke="none" fill="#d2c951"/>
    </g>
    <g id="Trazado_66" data-name="Trazado 66" transform="translate(666.63 709.68) rotate(173)" fill="#fff24b">
      <path d="M 15.32897090911865 129.8079071044922 L 0.4554541110992432 127.9816665649414 L 0.8294371366500854 1.035085201263428 L 11.62431144714355 2.360530138015747 L 15.32897090911865 129.8079071044922 Z" stroke="none"/>
      <path d="M 14.8122615814209 129.2406921386719 L 11.13699436187744 2.804460048675537 L 1.327777147293091 1.600038766860962 L 0.9567612409591675 127.5394592285156 L 14.8122615814209 129.2406921386719 M 15.84566402435303 130.3750915527344 L -0.0458529032766819 128.4238586425781 L 0.3310970962047577 0.4701483845710754 L 12.11161422729492 1.916615009307861 L 15.84566402435303 130.3750915527344 Z" stroke="none" fill="#d2c951"/>
    </g>
    <g id="Unión_11" data-name="Unión 11" transform="translate(664.497 584.855) rotate(180)" fill="#fff24b">
      <path d="M 23.58105659484863 36.35498046875 C 14.27574634552002 36.35498046875 6.705327033996582 31.19621086120605 6.705327033996582 24.85522079467773 C 6.705327033996582 22.91049003601074 7.435586929321289 20.98677062988281 8.817176818847656 19.29202079772949 C 10.1780366897583 17.6226806640625 12.14479637145996 16.19536018371582 14.50484657287598 15.1643705368042 L 15.22079658508301 14.85160064697266 L 14.63689708709717 14.33250045776367 L 1.248368263244629 2.429816961288452 L 40.49574661254883 0.5507827401161194 L 30.44149589538574 13.73773002624512 L 30.02773666381836 14.28040027618408 L 30.66986656188965 14.51138019561768 C 33.22270584106445 15.42963981628418 35.34060668945313 16.87862968444824 36.79461669921875 18.70170021057129 C 38.22956848144531 20.50087928771973 38.988037109375 22.62874031066895 38.988037109375 24.85522079467773 C 38.988037109375 27.97410011291504 37.50968551635742 30.84766960144043 34.8253173828125 32.94660186767578 C 33.45580673217773 34.01742172241211 31.82084655761719 34.85459136962891 29.96585655212402 35.43484115600586 C 28.01394653320313 36.0453987121582 25.86578750610352 36.35498046875 23.58105659484863 36.35498046875 Z" stroke="none"/>
      <path d="M 39.44705581665039 1.101566314697266 L 2.496738433837891 2.870624542236328 L 14.96910667419434 13.95882034301758 L 16.13690757751465 14.99702072143555 L 14.70500755310059 15.62255096435547 C 12.41751670837402 16.62185096740723 10.51553726196289 17.99998092651367 9.204708099365234 19.60795021057129 C 7.896697998046875 21.21245002746582 7.205318450927734 23.02692985534668 7.205318450927734 24.85522079467773 C 7.205318450927734 27.7223014831543 8.859336853027344 30.44353103637695 11.86268615722656 32.51763153076172 C 14.97900772094727 34.66975021362305 19.14067649841309 35.85498046875 23.58105659484863 35.85498046875 C 25.81511688232422 35.85498046875 27.91304779052734 35.55307006835938 29.81658554077148 34.9576416015625 C 31.61388778686523 34.39543914794922 33.1954460144043 33.58629989624023 34.51733779907227 32.55271148681641 C 37.07787704467773 30.55060005187988 38.488037109375 27.81692123413086 38.488037109375 24.85522079467773 C 38.488037109375 22.74320030212402 37.76728820800781 20.72315979003906 36.40371704101563 19.01346969604492 C 35.00750732421875 17.26285934448242 32.96625518798828 15.86874961853027 30.50063705444336 14.98187065124512 L 29.21637725830078 14.51992034912109 L 30.04387664794922 13.43457984924316 L 39.44705581665039 1.101566314697266 M 41.54443740844727 0 L 30.83910751342773 14.04088973999023 C 36.23095703125 15.98035049438477 39.488037109375 20.09412002563477 39.488037109375 24.85522079467773 C 39.488037109375 31.48291015625 33.17773818969727 36.85498046875 23.58105659484863 36.85498046875 C 13.98437690734863 36.85498046875 6.205318450927734 31.48291015625 6.205318450927734 24.85522079467773 C 6.205318450927734 20.5831298828125 9.437007904052734 16.83263969421387 14.3046875 14.70618057250977 L -3.814697265625e-06 1.989009857177734 L 41.54443740844727 0 Z" stroke="none" fill="#d2c951"/>
    </g>
    <g id="Trazado_69" data-name="Trazado 69" transform="matrix(0.998, -0.07, 0.07, 0.998, 624.95, 715.853)" fill="#fff24b">
      <path d="M 67.11923217773438 20.50044441223145 L 2.447705030441284 19.62517547607422 L 34.44927978515625 0.1258571594953537 L 67.11923217773438 20.50044441223145 Z" stroke="none"/>
      <path d="M 34.44623947143555 0.7132167816162109 L 4.190574645996094 19.14871215820313 L 65.33381652832031 19.97622871398926 L 34.44623947143555 0.7132167816162109 M 34.45233154296875 -0.4615097045898438 L 68.90465545654297 21.02464866638184 L 0.7048492431640625 20.10162925720215 L 34.45233154296875 -0.4615097045898438 Z" stroke="none" fill="#d2c951"/>
    </g>
    <g id="Trazado_70" data-name="Trazado 70" transform="translate(652.086 707)" fill="#fff24b">
      <path d="M 18.05951309204102 11.5 L 0.5000049471855164 11.5 L 0.5000049471855164 0.5 L 16.84898948669434 0.5 L 18.05951309204102 11.5 Z" stroke="none"/>
      <path d="M 0.9999942779541016 1 L 0.9999942779541016 11 L 17.50146102905273 11 L 16.40099334716797 1 L 0.9999942779541016 1 M -5.7220458984375e-06 0 L 17.2969856262207 0 L 18.61754417419434 12 L -5.7220458984375e-06 12 L -5.7220458984375e-06 0 Z" stroke="none" fill="#d2c951"/>
    </g>
    <path id="Trazado_75" data-name="Trazado 75" d="M142.346,46.145l112.809,302.7H0L106.333,46.479Z" transform="matrix(0.891, 0.454, -0.454, 0.891, 942.855, 258.219)" opacity="0.5" fill="url(#linear-gradient)"/>
    <g id="Trazado_76" data-name="Trazado 76" transform="matrix(0.914, 0.407, -0.407, 0.914, 1010.786, 327.027)" fill="#6a898b">
      <path d="M -15.58223247528076 49.68740081787109 L 0.3635257482528687 0.4999983012676239 L 58.6753044128418 0.4999983012676239 L 80.12769317626953 48.6828727722168 L -15.58223247528076 49.68740081787109 Z" stroke="none"/>
      <path d="M 0.7270584106445313 1.000003814697266 L -14.89215087890625 49.18012619018555 L 79.361328125 48.19088745117188 L 58.35059356689453 1.000003814697266 L 0.7270584106445313 1.000003814697266 M 0 3.814697265625e-06 L 59.00000381469727 3.814697265625e-06 L 80.89405822753906 49.17485427856445 L -16.27229309082031 50.19466781616211 L 0 3.814697265625e-06 Z" stroke="none" fill="#707070"/>
    </g>
    <path id="Trazado_79" data-name="Trazado 79" d="M142.346,46.145l112.809,302.7H0L106.333,46.479Z" transform="matrix(1, 0.017, -0.017, 1, 733.755, 314.415)" opacity="0.5" fill="url(#linear-gradient)"/>
    <g id="Trazado_80" data-name="Trazado 80" transform="translate(826.785 326.999)" fill="#6a898b">
      <path d="M -15.58223247528076 49.68740081787109 L 0.3635257482528687 0.4999983012676239 L 58.6753044128418 0.4999983012676239 L 80.12769317626953 48.6828727722168 L -15.58223247528076 49.68740081787109 Z" stroke="none"/>
      <path d="M 0.7270584106445313 1.000003814697266 L -14.89215087890625 49.18012619018555 L 79.361328125 48.19088745117188 L 58.35059356689453 1.000003814697266 L 0.7270584106445313 1.000003814697266 M 0 3.814697265625e-06 L 59.00000381469727 3.814697265625e-06 L 80.89405822753906 49.17485427856445 L -16.27229309082031 50.19466781616211 L 0 3.814697265625e-06 Z" stroke="none" fill="#707070"/>
    </g>
    <text id="Aquí_iría_un_logo.." data-name="Aquí iría un logo.." transform="translate(700 526)" fill="#fff" font-size="40" font-family="Roboto-Bold, Roboto" font-weight="700"><tspan x="0" y="0">Aquí iría un logo..</tspan></text>
  </g>
</svg>
